<svg width="355" height="90" viewBox="0 0 355 90" fill="none" xmlns="http://www.w3.org/2000/svg">
<path d="M114.02 77V66.5H118.66C119.847 66.5 120.78 66.7267 121.46 67.18C122.153 67.6333 122.5 68.3 122.5 69.18C122.5 70.0333 122.173 70.6933 121.52 71.16C120.867 71.6133 120.007 71.84 118.94 71.84L119.22 71.42C120.473 71.42 121.393 71.6533 121.98 72.12C122.567 72.5867 122.86 73.26 122.86 74.14C122.86 75.0467 122.527 75.7533 121.86 76.26C121.207 76.7533 120.187 77 118.8 77H114.02ZM115.4 75.88H118.74C119.633 75.88 120.307 75.74 120.76 75.46C121.227 75.1667 121.46 74.7 121.46 74.06C121.46 73.42 121.253 72.9533 120.84 72.66C120.427 72.3667 119.773 72.22 118.88 72.22H115.4V75.88ZM115.4 71.16H118.56C119.373 71.16 119.993 71.0067 120.42 70.7C120.86 70.3933 121.08 69.9467 121.08 69.36C121.08 68.7733 120.86 68.3333 120.42 68.04C119.993 67.7467 119.373 67.6 118.56 67.6H115.4V71.16ZM130.688 77.1C129.595 77.1 128.635 76.8733 127.808 76.42C126.981 75.9533 126.335 75.32 125.868 74.52C125.401 73.7067 125.168 72.78 125.168 71.74C125.168 70.7 125.388 69.78 125.828 68.98C126.281 68.18 126.895 67.5533 127.668 67.1C128.455 66.6333 129.335 66.4 130.308 66.4C131.295 66.4 132.168 66.6267 132.928 67.08C133.701 67.52 134.308 68.1467 134.748 68.96C135.188 69.76 135.408 70.6867 135.408 71.74C135.408 71.8067 135.401 71.88 135.388 71.96C135.388 72.0267 135.388 72.1 135.388 72.18H126.248V71.12H134.628L134.068 71.54C134.068 70.78 133.901 70.1067 133.568 69.52C133.248 68.92 132.808 68.4533 132.248 68.12C131.688 67.7867 131.041 67.62 130.308 67.62C129.588 67.62 128.941 67.7867 128.368 68.12C127.795 68.4533 127.348 68.92 127.028 69.52C126.708 70.12 126.548 70.8067 126.548 71.58V71.8C126.548 72.6 126.721 73.3067 127.068 73.92C127.428 74.52 127.921 74.9933 128.548 75.34C129.188 75.6733 129.915 75.84 130.728 75.84C131.368 75.84 131.961 75.7267 132.508 75.5C133.068 75.2733 133.548 74.9267 133.948 74.46L134.748 75.38C134.281 75.94 133.695 76.3667 132.988 76.66C132.295 76.9533 131.528 77.1 130.688 77.1ZM140.083 77V67.36L140.443 67.74H136.103V66.5H145.483V67.74H141.143L141.503 67.36V77H140.083ZM151.547 77.1C150.454 77.1 149.494 76.8733 148.667 76.42C147.841 75.9533 147.194 75.32 146.727 74.52C146.261 73.7067 146.027 72.78 146.027 71.74C146.027 70.7 146.247 69.78 146.687 68.98C147.141 68.18 147.754 67.5533 148.527 67.1C149.314 66.6333 150.194 66.4 151.167 66.4C152.154 66.4 153.027 66.6267 153.787 67.08C154.561 67.52 155.167 68.1467 155.607 68.96C156.047 69.76 156.267 70.6867 156.267 71.74C156.267 71.8067 156.261 71.88 156.247 71.96C156.247 72.0267 156.247 72.1 156.247 72.18H147.107V71.12H155.487L154.927 71.54C154.927 70.78 154.761 70.1067 154.427 69.52C154.107 68.92 153.667 68.4533 153.107 68.12C152.547 67.7867 151.901 67.62 151.167 67.62C150.447 67.62 149.801 67.7867 149.227 68.12C148.654 68.4533 148.207 68.92 147.887 69.52C147.567 70.12 147.407 70.8067 147.407 71.58V71.8C147.407 72.6 147.581 73.3067 147.927 73.92C148.287 74.52 148.781 74.9933 149.407 75.34C150.047 75.6733 150.774 75.84 151.587 75.84C152.227 75.84 152.821 75.7267 153.367 75.5C153.927 75.2733 154.407 74.9267 154.807 74.46L155.607 75.38C155.141 75.94 154.554 76.3667 153.847 76.66C153.154 76.9533 152.387 77.1 151.547 77.1ZM164.831 77.1C163.924 77.1 163.104 76.8933 162.371 76.48C161.637 76.0533 161.051 75.4467 160.611 74.66C160.184 73.86 159.971 72.8867 159.971 71.74C159.971 70.5933 160.184 69.6267 160.611 68.84C161.037 68.04 161.617 67.4333 162.351 67.02C163.084 66.6067 163.911 66.4 164.831 66.4C165.831 66.4 166.724 66.6267 167.511 67.08C168.311 67.52 168.937 68.1467 169.391 68.96C169.844 69.76 170.071 70.6867 170.071 71.74C170.071 72.8067 169.844 73.74 169.391 74.54C168.937 75.34 168.311 75.9667 167.511 76.42C166.724 76.8733 165.831 77.1 164.831 77.1ZM159.411 80.88V66.5H160.771V69.66L160.631 71.76L160.831 73.88V80.88H159.411ZM164.731 75.84C165.477 75.84 166.144 75.6733 166.731 75.34C167.317 74.9933 167.784 74.5133 168.131 73.9C168.477 73.2733 168.651 72.5533 168.651 71.74C168.651 70.9267 168.477 70.2133 168.131 69.6C167.784 68.9867 167.317 68.5067 166.731 68.16C166.144 67.8133 165.477 67.64 164.731 67.64C163.984 67.64 163.311 67.8133 162.711 68.16C162.124 68.5067 161.657 68.9867 161.311 69.6C160.977 70.2133 160.811 70.9267 160.811 71.74C160.811 72.5533 160.977 73.2733 161.311 73.9C161.657 74.5133 162.124 74.9933 162.711 75.34C163.311 75.6733 163.984 75.84 164.731 75.84ZM173.122 77V66.5H174.542V74.84L181.562 66.5H182.822V77H181.402V68.64L174.402 77H173.122ZM186.891 77V66.5H188.311V71.14H194.931V66.5H196.351V77H194.931V72.36H188.311V77H186.891ZM206.907 77V74.68L206.847 74.3V70.42C206.847 69.5267 206.594 68.84 206.087 68.36C205.594 67.88 204.854 67.64 203.867 67.64C203.187 67.64 202.541 67.7533 201.927 67.98C201.314 68.2067 200.794 68.5067 200.367 68.88L199.727 67.82C200.261 67.3667 200.901 67.02 201.647 66.78C202.394 66.5267 203.181 66.4 204.007 66.4C205.367 66.4 206.414 66.74 207.147 67.42C207.894 68.0867 208.267 69.1067 208.267 70.48V77H206.907ZM203.287 77.1C202.501 77.1 201.814 76.9733 201.227 76.72C200.654 76.4533 200.214 76.0933 199.907 75.64C199.601 75.1733 199.447 74.64 199.447 74.04C199.447 73.4933 199.574 73 199.827 72.56C200.094 72.1067 200.521 71.7467 201.107 71.48C201.707 71.2 202.507 71.06 203.507 71.06H207.127V72.12H203.547C202.534 72.12 201.827 72.3 201.427 72.66C201.041 73.02 200.847 73.4667 200.847 74C200.847 74.6 201.081 75.08 201.547 75.44C202.014 75.8 202.667 75.98 203.507 75.98C204.307 75.98 204.994 75.8 205.567 75.44C206.154 75.0667 206.581 74.5333 206.847 73.84L207.167 74.82C206.901 75.5133 206.434 76.0667 205.767 76.48C205.114 76.8933 204.287 77.1 203.287 77.1ZM217.467 77.1C216.561 77.1 215.741 76.8933 215.007 76.48C214.274 76.0533 213.687 75.4467 213.247 74.66C212.821 73.86 212.607 72.8867 212.607 71.74C212.607 70.5933 212.821 69.6267 213.247 68.84C213.674 68.04 214.254 67.4333 214.987 67.02C215.721 66.6067 216.547 66.4 217.467 66.4C218.467 66.4 219.361 66.6267 220.147 67.08C220.947 67.52 221.574 68.1467 222.027 68.96C222.481 69.76 222.707 70.6867 222.707 71.74C222.707 72.8067 222.481 73.74 222.027 74.54C221.574 75.34 220.947 75.9667 220.147 76.42C219.361 76.8733 218.467 77.1 217.467 77.1ZM212.047 80.88V66.5H213.407V69.66L213.267 71.76L213.467 73.88V80.88H212.047ZM217.367 75.84C218.114 75.84 218.781 75.6733 219.367 75.34C219.954 74.9933 220.421 74.5133 220.767 73.9C221.114 73.2733 221.287 72.5533 221.287 71.74C221.287 70.9267 221.114 70.2133 220.767 69.6C220.421 68.9867 219.954 68.5067 219.367 68.16C218.781 67.8133 218.114 67.64 217.367 67.64C216.621 67.64 215.947 67.8133 215.347 68.16C214.761 68.5067 214.294 68.9867 213.947 69.6C213.614 70.2133 213.447 70.9267 213.447 71.74C213.447 72.5533 213.614 73.2733 213.947 73.9C214.294 74.5133 214.761 74.9933 215.347 75.34C215.947 75.6733 216.621 75.84 217.367 75.84ZM225.758 77V66.5H227.178V71.14H233.798V66.5H235.218V77H233.798V72.36H227.178V77H225.758ZM245.774 77V74.68L245.714 74.3V70.42C245.714 69.5267 245.461 68.84 244.954 68.36C244.461 67.88 243.721 67.64 242.734 67.64C242.054 67.64 241.408 67.7533 240.794 67.98C240.181 68.2067 239.661 68.5067 239.234 68.88L238.594 67.82C239.128 67.3667 239.768 67.02 240.514 66.78C241.261 66.5267 242.048 66.4 242.874 66.4C244.234 66.4 245.281 66.74 246.014 67.42C246.761 68.0867 247.134 69.1067 247.134 70.48V77H245.774ZM242.154 77.1C241.368 77.1 240.681 76.9733 240.094 76.72C239.521 76.4533 239.081 76.0933 238.774 75.64C238.468 75.1733 238.314 74.64 238.314 74.04C238.314 73.4933 238.441 73 238.694 72.56C238.961 72.1067 239.388 71.7467 239.974 71.48C240.574 71.2 241.374 71.06 242.374 71.06H245.994V72.12H242.414C241.401 72.12 240.694 72.3 240.294 72.66C239.908 73.02 239.714 73.4667 239.714 74C239.714 74.6 239.948 75.08 240.414 75.44C240.881 75.8 241.534 75.98 242.374 75.98C243.174 75.98 243.861 75.8 244.434 75.44C245.021 75.0667 245.448 74.5333 245.714 73.84L246.034 74.82C245.768 75.5133 245.301 76.0667 244.634 76.48C243.981 76.8933 243.154 77.1 242.154 77.1ZM257.695 77V73.22L257.955 73.52H254.395C253.048 73.52 251.995 73.2267 251.235 72.64C250.475 72.0533 250.095 71.2 250.095 70.08C250.095 68.88 250.501 67.9867 251.315 67.4C252.128 66.8 253.215 66.5 254.575 66.5H258.995V77H257.695ZM250.015 77L252.895 72.96H254.375L251.555 77H250.015ZM257.695 72.8V67.32L257.955 67.74H254.615C253.641 67.74 252.881 67.9267 252.335 68.3C251.801 68.6733 251.535 69.28 251.535 70.12C251.535 71.68 252.528 72.46 254.515 72.46H257.955L257.695 72.8ZM275.978 77L271.658 71.8L272.838 71.1L277.658 77H275.978ZM268.278 77V66.5H269.698V77H268.278ZM269.258 72.32V71.1H272.638V72.32H269.258ZM272.958 71.9L271.638 71.7L275.818 66.5H277.358L272.958 71.9ZM277.979 76.98L278.079 75.76C278.172 75.7733 278.259 75.7933 278.339 75.82C278.432 75.8333 278.512 75.84 278.579 75.84C279.006 75.84 279.346 75.68 279.599 75.36C279.866 75.04 280.066 74.6133 280.199 74.08C280.332 73.5467 280.426 72.9467 280.479 72.28C280.532 71.6 280.579 70.92 280.619 70.24L280.799 66.5H288.499V77H287.079V67.32L287.439 67.74H281.719L282.059 67.3L281.899 70.34C281.859 71.2467 281.786 72.1133 281.679 72.94C281.586 73.7667 281.432 74.4933 281.219 75.12C281.019 75.7467 280.739 76.24 280.379 76.6C280.019 76.9467 279.559 77.12 278.999 77.12C278.839 77.12 278.672 77.1067 278.499 77.08C278.339 77.0533 278.166 77.02 277.979 76.98ZM292.536 77V66.5H293.956V74.84L300.976 66.5H302.236V77H300.816V68.64L293.816 77H292.536ZM306.305 77V66.5H307.725V71.14H314.345V66.5H315.765V77H314.345V72.36H307.725V77H306.305ZM319.801 77V66.5H321.221V74.84L328.241 66.5H329.501V77H328.081V68.64L321.081 77H319.801ZM341.271 77L336.951 71.8L338.131 71.1L342.951 77H341.271ZM333.571 77V66.5H334.991V77H333.571ZM334.551 72.32V71.1H337.931V72.32H334.551ZM338.251 71.9L336.931 71.7L341.111 66.5H342.651L338.251 71.9ZM351.517 77V74.68L351.457 74.3V70.42C351.457 69.5267 351.203 68.84 350.697 68.36C350.203 67.88 349.463 67.64 348.477 67.64C347.797 67.64 347.15 67.7533 346.537 67.98C345.923 68.2067 345.403 68.5067 344.977 68.88L344.337 67.82C344.87 67.3667 345.51 67.02 346.257 66.78C347.003 66.5267 347.79 66.4 348.617 66.4C349.977 66.4 351.023 66.74 351.757 67.42C352.503 68.0867 352.877 69.1067 352.877 70.48V77H351.517ZM347.897 77.1C347.11 77.1 346.423 76.9733 345.837 76.72C345.263 76.4533 344.823 76.0933 344.517 75.64C344.21 75.1733 344.057 74.64 344.057 74.04C344.057 73.4933 344.183 73 344.437 72.56C344.703 72.1067 345.13 71.7467 345.717 71.48C346.317 71.2 347.117 71.06 348.117 71.06H351.737V72.12H348.157C347.143 72.12 346.437 72.3 346.037 72.66C345.65 73.02 345.457 73.4667 345.457 74C345.457 74.6 345.69 75.08 346.157 75.44C346.623 75.8 347.277 75.98 348.117 75.98C348.917 75.98 349.603 75.8 350.177 75.44C350.763 75.0667 351.19 74.5333 351.457 73.84L351.777 74.82C351.51 75.5133 351.043 76.0667 350.377 76.48C349.723 76.8933 348.897 77.1 347.897 77.1Z" fill="white"/>
<path d="M112.4 57L128 22H136L151.65 57H143.15L130.35 26.1H133.55L120.7 57H112.4ZM120.2 49.5L122.35 43.35H140.35L142.55 49.5H120.2ZM155.691 57V30.1H163.441V46.1L176.541 30.1H183.691V57H175.941V41L162.891 57H155.691ZM169.191 27.2C166.258 27.2 164.058 26.5667 162.591 25.3C161.125 24 160.375 22.05 160.341 19.45H165.441C165.475 20.5833 165.791 21.4833 166.391 22.15C166.991 22.8167 167.908 23.15 169.141 23.15C170.341 23.15 171.258 22.8167 171.891 22.15C172.558 21.4833 172.891 20.5833 172.891 19.45H178.091C178.091 22.05 177.341 24 175.841 25.3C174.341 26.5667 172.125 27.2 169.191 27.2ZM204.539 57.6C202.339 57.6 200.339 57.2833 198.539 56.65C196.739 55.9833 195.173 54.9667 193.839 53.6C192.539 52.2 191.523 50.4167 190.789 48.25C190.089 46.0833 189.739 43.5 189.739 40.5C189.739 38.3667 189.923 36.4167 190.289 34.65C190.656 32.8833 191.206 31.2833 191.939 29.85C192.673 28.3833 193.606 27.1 194.739 26C195.906 24.8667 197.256 23.9333 198.789 23.2C200.356 22.4333 202.123 21.85 204.089 21.45L216.889 18.9L217.939 25.6L206.639 27.85C205.973 27.9833 205.206 28.1667 204.339 28.4C203.506 28.6 202.656 28.9167 201.789 29.35C200.956 29.7833 200.173 30.4 199.439 31.2C198.739 31.9667 198.173 32.9833 197.739 34.25C197.306 35.4833 197.089 37.0167 197.089 38.85C197.089 39.4167 197.106 39.85 197.139 40.15C197.206 40.45 197.256 40.7667 197.289 41.1C197.356 41.4333 197.389 41.95 197.389 42.65L194.889 40.2C195.623 38.6333 196.556 37.3 197.689 36.2C198.856 35.1 200.189 34.2667 201.689 33.7C203.223 33.1 204.923 32.8 206.789 32.8C209.323 32.8 211.539 33.3167 213.439 34.35C215.373 35.35 216.873 36.7667 217.939 38.6C219.006 40.4333 219.539 42.5167 219.539 44.85C219.539 47.3833 218.906 49.6167 217.639 51.55C216.373 53.45 214.606 54.9333 212.339 56C210.106 57.0667 207.506 57.6 204.539 57.6ZM204.939 51.55C206.239 51.55 207.389 51.2667 208.389 50.7C209.389 50.1 210.156 49.3167 210.689 48.35C211.256 47.35 211.539 46.2333 211.539 45C211.539 43.8 211.256 42.7333 210.689 41.8C210.156 40.8667 209.389 40.1333 208.389 39.6C207.389 39.0667 206.223 38.8 204.889 38.8C203.589 38.8 202.423 39.0667 201.389 39.6C200.356 40.1 199.556 40.8 198.989 41.7C198.423 42.6 198.139 43.65 198.139 44.85C198.139 46.0833 198.423 47.2167 198.989 48.25C199.589 49.25 200.389 50.05 201.389 50.65C202.423 51.25 203.606 51.55 204.939 51.55ZM237.432 57.4C234.565 57.4 232.015 56.8 229.782 55.6C227.582 54.4 225.832 52.7667 224.532 50.7C223.265 48.6 222.632 46.2167 222.632 43.55C222.632 40.85 223.265 38.4667 224.532 36.4C225.832 34.3 227.582 32.6667 229.782 31.5C232.015 30.3 234.565 29.7 237.432 29.7C240.265 29.7 242.799 30.3 245.032 31.5C247.265 32.6667 249.015 34.2833 250.282 36.35C251.549 38.4167 252.182 40.8167 252.182 43.55C252.182 46.2167 251.549 48.6 250.282 50.7C249.015 52.7667 247.265 54.4 245.032 55.6C242.799 56.8 240.265 57.4 237.432 57.4ZM237.432 51C238.732 51 239.899 50.7 240.932 50.1C241.965 49.5 242.782 48.65 243.382 47.55C243.982 46.4167 244.282 45.0833 244.282 43.55C244.282 41.9833 243.982 40.65 243.382 39.55C242.782 38.45 241.965 37.6 240.932 37C239.899 36.4 238.732 36.1 237.432 36.1C236.132 36.1 234.965 36.4 233.932 37C232.899 37.6 232.065 38.45 231.432 39.55C230.832 40.65 230.532 41.9833 230.532 43.55C230.532 45.0833 230.832 46.4167 231.432 47.55C232.065 48.65 232.899 49.5 233.932 50.1C234.965 50.7 236.132 51 237.432 51ZM253.756 56.95L254.156 50.55C254.356 50.5833 254.556 50.6167 254.756 50.65C254.956 50.65 255.14 50.65 255.306 50.65C256.24 50.65 256.973 50.3833 257.506 49.85C258.04 49.3167 258.44 48.6 258.706 47.7C258.973 46.7667 259.156 45.7167 259.256 44.55C259.39 43.3833 259.49 42.1667 259.556 40.9L259.956 30.1H282.956V57H275.156V34.6L276.906 36.5H265.106L266.756 34.5L266.406 41.25C266.306 43.65 266.106 45.85 265.806 47.85C265.54 49.85 265.09 51.5833 264.456 53.05C263.823 54.4833 262.973 55.6 261.906 56.4C260.84 57.1667 259.473 57.55 257.806 57.55C257.206 57.55 256.573 57.5 255.906 57.4C255.24 57.3 254.523 57.15 253.756 56.95ZM290.457 57V30.1H298.207V46.1L311.307 30.1H318.457V57H310.707V41L297.657 57H290.457ZM331.705 57V34.7L333.455 36.5H322.605V30.1H348.555V36.5H337.705L339.455 34.7V57H331.705Z" fill="white"/>
<path d="M45 0C69.8528 0 90 20.1472 90 45C90 69.8528 69.8528 90 45 90C20.1472 90 0 69.8528 0 45C0 20.1472 20.1472 0 45 0ZM13.792 55.0342C14.4139 54.858 14.0405 53.9923 13.0811 54.5225C12.417 54.8896 11.9215 55.5189 12.0107 56.2871C12.3303 59.0394 14.7979 58.8359 16.7432 58.8545C16.6222 59.4646 16.7094 60.5381 16.4287 61.2344C16.0746 62.1129 15.435 62.5039 15.2578 62.6436C15.0807 62.7831 14.6032 64.3877 14.5146 64.6318C14.4265 64.8766 14.6646 65.9776 14.7939 66.1592C14.9233 66.3405 15.5153 66.4104 15.5977 66.334C15.6656 66.2701 15.6727 66.2592 15.6299 66.1729L15.5977 66.1104C15.5227 65.964 15.4481 65.8034 15.4072 65.5244C15.3664 65.2454 15.6116 64.3107 15.6865 64.1084C15.7615 63.9061 16.9875 63.6056 17.5869 63.3125C18.1854 63.02 18.7437 62.5607 18.7588 62.6289C18.7724 62.6985 18.7176 63.8282 18.6768 64.0801C18.6359 64.3311 19.0855 64.7502 19.5215 65.127C19.9573 65.5036 19.9709 65.9223 20.2979 65.9922C20.6246 66.0618 21.101 65.9921 21.292 65.9502C21.4827 65.9084 21.5785 66.1032 21.6875 65.8799C21.7961 65.6569 21.6057 65.4758 21.4424 65.3643C21.279 65.2527 20.8704 65.099 20.666 64.876C20.4617 64.6527 20.1067 64.3032 20.1611 64.1357C20.2161 63.9681 20.7338 63.4522 20.8428 63.0059C20.9492 62.5696 21.0034 62.2665 21.0059 62.2529C21.0059 62.2529 21.7572 62.3081 22.4111 62.4756C23.0652 62.643 24.3184 62.6289 24.3184 62.6289C24.3184 62.6289 24.1273 62.9637 23.9912 63.2148C23.8549 63.4661 23.5279 64.0107 23.6777 64.3037C23.8278 64.5972 24.4819 65.7823 24.8359 65.9219C25.1901 66.0613 25.4764 65.9639 25.6807 65.9639C25.8847 65.9638 26.0072 65.9079 25.8984 65.7129C25.8077 65.5501 25.6978 65.503 25.5928 65.4678L25.5303 65.4473C25.4078 65.4055 25.271 65.3919 25.1758 65.2246C25.0804 65.0572 24.999 64.6244 24.999 64.3594C24.999 64.0943 25.6932 63.4667 25.9932 63.0898C26.2929 62.7132 26.3887 62.4893 26.3887 62.4893C26.3887 62.4893 26.4838 63.2986 26.5928 63.5918C26.7018 63.8848 27.4108 64.4711 27.8604 64.792C28.3096 65.1128 28.3777 65.5035 28.5137 65.5596C28.6499 65.6154 29.0867 65.7061 29.2637 65.6504C29.4407 65.5945 29.5833 65.4821 29.4199 65.3008C29.2565 65.1194 29.0249 65.0079 28.8955 64.9033C28.7661 64.7985 27.915 63.5714 27.833 63.041C27.7512 62.5107 27.7238 62.1891 27.792 61.8682C27.8599 61.5476 27.915 61.4639 27.915 61.4639L27.957 61.4219C28.0785 61.3022 28.4273 60.9615 28.5889 60.8359C28.7865 60.6824 29.8358 60.5149 30.0605 60.6475C30.2853 60.7801 30.333 60.8982 30.6191 60.7588C30.905 60.6191 31.1506 60.3162 31.2188 60.25C31.2866 60.184 31.2764 60.2116 31.334 60.1631C31.3918 60.1142 31.4024 60.1032 31.3887 60.0439C31.3743 59.9835 31.0174 59.3916 30.9766 59.1582C30.9357 58.9245 30.99 58.9348 30.8506 58.7363C30.7113 58.538 30.1556 58.1106 30.166 58.084C30.1797 58.0596 30.3192 57.8153 30.3193 57.7314C30.3193 57.6479 29.791 57.7871 29.791 57.7871C29.791 57.7871 29.8798 57.6684 29.8594 57.501C29.8389 57.3337 29.7978 57.2398 29.7705 57.2363C29.7417 57.2341 29.3719 57.4946 29.2598 57.627C29.1475 57.7593 29.1 57.8118 29.083 57.8154C29.0659 57.8189 28.1152 58.1886 27.5361 58.1816C26.9573 58.1747 26.0243 58.0066 25.4521 57.9229C24.88 57.8392 22.7325 57.2604 21.3838 57.2744C20.0352 57.2883 18.7258 57.3425 18.5918 57.4014C17.9199 57.5703 15.2104 57.926 14.2236 57.666C12.8488 57.3035 12.4175 55.4238 13.792 55.0342ZM41.085 19L26.1631 55.3691C26.2497 55.3108 26.3464 55.2436 26.4707 55.1582C26.8867 54.8726 28.4643 53.8852 28.7451 53.6055C29.0246 53.3264 29.5718 52.3824 29.791 51.6309C30.0101 50.8792 30.5722 49.8354 30.7383 49.5586C30.9044 49.2819 31.1156 48.9364 31.125 48.7178C31.1346 48.4989 31.3806 48.1007 31.5508 47.6748C31.7209 47.2488 31.7985 46.5354 31.8799 46.5254C31.9616 46.5172 32.1726 46.9763 32.2812 47.2471C32.39 47.5185 32.6515 48.105 32.6953 48.1934C32.7393 48.2817 32.9433 48.3268 33.1025 48.3682C33.2619 48.4097 33.7054 48.6752 33.9648 48.7617C34.2242 48.8484 34.2879 48.908 34.4023 49.0215C34.5169 49.135 34.5898 49.3155 34.75 49.4648C34.9101 49.6141 35.3043 49.6968 35.6299 49.7617C35.9555 49.8266 36.4268 50.0604 36.7207 50.126C37.0143 50.1913 36.9811 50.2888 36.9229 50.4443C36.8644 50.6002 36.6877 50.884 36.5469 51.0459C36.4061 51.2078 36.3443 51.3806 35.9883 51.5762C35.6322 51.7718 35.3462 51.7517 35.0771 51.7637C34.8081 51.7758 34.4514 51.88 34.1348 51.8486C33.818 51.8173 33.6939 51.8629 33.4736 51.8779C33.2535 51.893 33.2795 51.9595 33.1992 52.041C33.1189 52.1227 32.9468 52.5575 32.9082 53.1982C32.8698 53.8394 32.7542 54.8438 32.79 55.2246C32.8261 55.6056 33.0713 56.2066 33.2773 56.9082C33.4834 57.6099 33.3716 58.1616 33.375 58.5332C33.3782 58.9046 33.1788 59.4097 33.043 59.7764C32.9376 60.0604 31.5536 63.5791 30.9346 65.3662L39.7617 65.3633V63.9346C36.2167 63.8016 34.4434 62.649 34.4434 60.4775C34.4434 59.7243 34.599 58.9489 34.9092 58.1514L37.3018 52.0361H52.8896L56.0801 59.7139C56.2572 60.1347 56.3457 60.5888 56.3457 61.0762C56.3457 62.8487 54.3295 63.8016 50.2969 63.9346V65.3633H72V63.9346H71.7344C69.5852 63.9346 68.0891 62.9153 67.2471 60.877L49.9648 19H41.085ZM51.793 49.377H38.332L44.8467 32.5605L51.793 49.377Z" fill="white"/>
</svg>
