<svg width="110" height="110" viewBox="0 0 110 110" fill="none" xmlns="http://www.w3.org/2000/svg">
<path d="M103.881 19.3332C103.878 19.3308 103.876 19.3289 103.874 19.3268C103.873 19.3255 103.871 19.3235 103.87 19.3222C103.866 19.319 103.863 19.3158 103.86 19.3126C103.859 19.3113 103.857 19.3096 103.855 19.3083C103.854 19.3066 103.852 19.3051 103.851 19.3033C103.849 19.3016 103.846 19.2988 103.844 19.2969C103.844 19.2965 103.843 19.296 103.843 19.2956C101.347 16.8094 98.3359 15.1474 95.151 14.3089C94.2861 11.0108 92.5998 8.05219 90.2004 5.65302C82.663 -1.88434 70.3991 -1.88434 62.8617 5.65302C55.9712 12.5435 55.4812 23.1181 60.7713 30.5257L49.9442 41.3528C49.1826 42.1144 48.8517 43.2064 49.0632 44.2628L51.3414 55.6541C51.5966 56.9296 52.5935 57.9263 53.8688 58.1815L65.26 60.4595C66.328 60.673 67.4168 60.3316 68.1701 59.5784L78.9971 48.7513C86.4795 54.0947 97.073 53.482 103.87 46.6609C111.403 39.1283 111.407 26.8716 103.881 19.3332ZM99.3132 42.1043C99.2829 42.1346 99.2526 42.1644 99.2221 42.1945C99.221 42.1956 99.2197 42.1969 99.2187 42.198C93.6342 47.6718 85.1945 46.4779 81.1851 42.2008C81.1411 42.1578 81.1224 42.1389 81.0876 42.1043C81.0858 42.1026 81.0826 42.0991 81.0805 42.0972C80.4845 41.5051 79.681 41.1568 78.7709 41.1609C78.7705 41.1607 78.7544 41.1609 78.7539 41.1611C77.8903 41.176 77.0936 41.5427 76.5722 42.0639C76.5711 42.0639 64.8336 53.8017 64.8327 53.8025L57.2386 52.2838L55.7199 44.6897L67.4181 32.9915C68.0223 32.3873 68.3619 31.5679 68.3619 30.7133C68.3619 29.8586 68.0223 29.0394 67.4181 28.4353C62.3811 23.3981 62.3811 15.2467 67.4181 10.2094C72.4429 5.18466 80.619 5.18488 85.644 10.2094C86.6836 11.2491 87.5215 12.4526 88.1377 13.7788C83.896 14.2305 79.7751 16.0783 76.5312 19.3225C75.2728 20.5808 75.2728 22.6205 76.5312 23.8789C77.7893 25.1372 79.8292 25.1372 81.0876 23.8789C86.368 18.5989 94.6152 19.1936 99.3012 23.8666C99.3018 23.8673 99.3029 23.8683 99.3035 23.869C99.3046 23.8701 99.3059 23.8714 99.3072 23.8724C99.3093 23.8746 99.3115 23.8767 99.3136 23.8789C104.338 28.9032 104.338 37.0793 99.3132 42.1043Z" fill="#FFC59E"/>
<path d="M39.0304 34.5181L34.474 29.9617C33.2159 28.7034 31.176 28.7034 29.9176 29.9617C28.6593 31.22 28.6593 33.2598 29.9176 34.5181L34.474 39.0745C35.7322 40.3329 37.7721 40.3329 39.0304 39.0745C40.2886 37.8162 40.2886 35.7762 39.0304 34.5181Z" fill="#FFC59E"/>
<path d="M36.7516 42.564H27.6388C25.8594 42.564 24.4167 44.0064 24.4167 45.7858C24.4167 47.5651 25.8592 49.0076 27.6388 49.0076H36.7516C38.5309 49.0076 39.9734 47.5651 39.9734 45.7858C39.9734 44.0064 38.5309 42.564 36.7516 42.564Z" fill="#FFC59E"/>
<path d="M45.7417 24.4615C43.9624 24.4615 42.5199 25.904 42.5199 27.6833V36.7962C42.5199 38.5755 43.9624 40.018 45.7417 40.018C47.521 40.018 48.9635 38.5755 48.9635 36.7962V27.6833C48.9637 25.904 47.5212 24.4615 45.7417 24.4615Z" fill="#FFC59E"/>
<path d="M80.0381 75.5258L75.4817 70.9694C74.2234 69.711 72.1834 69.711 70.9253 70.9694C69.667 72.2277 69.667 74.2675 70.9253 75.5258L75.4817 80.0822C76.7399 81.3405 78.78 81.3405 80.0381 80.0822C81.2965 78.8239 81.2965 76.7839 80.0381 75.5258Z" fill="#FFC59E"/>
<path d="M63.9989 70.0262C62.2196 70.0262 60.7771 71.4687 60.7771 73.248V82.3609C60.7771 84.1402 62.2196 85.5827 63.9989 85.5827C65.7782 85.5827 67.2207 84.1402 67.2207 82.3609V73.248C67.2209 71.4687 65.7782 70.0262 63.9989 70.0262Z" fill="#FFC59E"/>
<path d="M82.3164 60.8213H73.2034C71.424 60.8213 69.9816 62.2638 69.9816 64.0431C69.9816 65.8224 71.424 67.2649 73.2034 67.2649H82.3162C84.0957 67.2649 85.5382 65.8224 85.5382 64.0431C85.5382 62.2638 84.0957 60.8213 82.3164 60.8213Z" fill="#FFC59E"/>
<path d="M60.3414 65.4838C59.9978 64.3445 59.0547 63.4871 57.8881 63.2535L48.6032 61.3964L46.746 52.1115C46.5134 50.9479 45.66 50.0067 44.525 49.6612C43.3904 49.3157 42.157 49.6219 41.3152 50.4583L30.5309 61.1779C22.9858 55.8032 12.4166 56.4975 5.65286 63.2612C-1.88429 70.7986 -1.88429 83.0625 5.65286 90.5999C8.0531 93.0004 11.0141 94.6867 14.3145 95.5514C18.1114 109.973 36.1648 114.766 46.6608 104.269C53.4378 97.4923 54.1423 86.9559 48.7566 79.404L59.5273 68.6979C60.3717 67.8589 60.6847 66.6233 60.3414 65.4838ZM42.1112 76.9238C42.1099 76.9251 42.1086 76.9268 42.1074 76.9281C42.1065 76.929 42.1054 76.9298 42.1046 76.9307C40.8524 78.1798 40.8449 80.2268 42.1046 81.4871C47.1489 86.5316 47.13 94.6873 42.1046 99.7129C34.6175 107.2 21.7601 102.977 20.2867 92.3829C19.6714 87.9603 21.2136 84.1522 23.8787 81.4871C25.1371 80.2288 25.1371 78.189 23.8787 76.9307C22.6206 75.6723 20.5806 75.6723 19.3223 76.9307C16.0784 80.1746 14.2344 84.2949 13.7828 88.5363C12.4553 87.9199 11.2495 87.0838 10.2093 86.0437C5.1845 81.0189 5.1845 72.8429 10.2093 67.8179C15.2343 62.7929 23.4103 62.7931 28.4351 67.8179C29.6909 69.0736 31.7255 69.0764 32.9846 67.8247L41.6038 59.2572L42.7057 64.7664C42.9609 66.042 43.9578 67.0386 45.2331 67.2939L50.6996 68.3872L42.1112 76.9238Z" fill="#FFC59E"/>
</svg>
