<svg width="142" height="112" viewBox="0 0 142 112" fill="none" xmlns="http://www.w3.org/2000/svg">
<mask id="path-1-outside-1_33180_2999" maskUnits="userSpaceOnUse" x="0.000335693" y="0" width="142" height="113" fill="black">
<rect fill="white" x="0.000335693" width="142" height="113"/>
<path d="M76.3047 1C79.1303 1 81.4209 3.2906 81.4209 6.11621V31.6973C81.4209 37.9647 88.2131 40.3948 93.3984 41.3516C91.5677 38.1548 91.1287 34.347 92.1836 30.8174C92.4439 30.0242 92.7963 29.2643 93.2344 28.5537C95.6647 24.6116 102.71 21.8116 105.844 21.5391C107.035 21.4399 111.331 21.5419 114.667 22.4551C118.849 23.5999 122.734 25.6383 126.053 28.4287C126.631 29.0992 129.187 31.1263 131.417 34.1406C142 48.4482 143.174 68.514 134.563 87.8125C131.463 94.7834 122.551 111 106.772 111C103.386 111.019 100.027 110.393 96.875 109.155C96.5912 109.052 95.8531 108.612 94.9805 108.033C89.9541 105.315 80.593 97.8587 85.4248 79.2998C87.1136 76.1578 89.484 73.4332 92.3623 71.3262C89.1252 70.2506 85.9725 68.9353 82.9307 67.3916L82.626 67.2383C79.3174 65.6006 75.3816 64.5316 71.3994 64.2061C66.8315 64.3486 62.2397 65.4244 58.5752 67.2383L58.2715 67.3916C55.2295 68.9353 52.0761 70.2506 48.8389 71.3262C51.7173 73.4333 54.0885 76.1577 55.7773 79.2998C60.468 97.3164 51.7819 104.869 46.6719 107.782C45.6413 108.481 44.7278 109.037 44.4043 109.155C41.2523 110.393 37.8931 111.019 34.5068 111C18.7284 111 9.81627 94.7834 6.71582 87.8125C-1.89484 68.514 -0.720671 48.4482 9.86231 34.1406C12.092 31.1262 14.6482 29.0991 15.2266 28.4287C18.5456 25.6382 22.4299 23.5999 26.6123 22.4551C29.9488 21.5418 34.2442 21.4399 35.4356 21.5391C38.5696 21.8116 45.6146 24.6116 48.0449 28.5537C48.483 29.2643 48.8354 30.0242 49.0957 30.8174C50.1506 34.3469 49.7116 38.1548 47.8809 41.3516C53.0662 40.3948 59.8584 37.9647 59.8584 31.6973V6.11621C59.8584 3.2906 62.149 1 64.9746 1H76.3047ZM64.9639 31.6973C64.9639 46.8695 43.0304 47.0723 42.0967 47.0723C41.0225 47.073 40.0618 46.4023 39.6924 45.3936C39.323 44.3848 39.6237 43.2527 40.4443 42.5596C43.5837 40.1961 45.0579 36.2196 44.2178 32.3809C43.1076 28.8789 38.6668 26.9571 35.0088 26.6475C26.6539 26.3136 18.7121 30.2919 13.9756 37.1826C4.50554 49.986 3.53782 68.1361 11.3887 85.7334C14.0825 91.7937 21.742 105.884 34.5068 105.884C37.2464 105.902 40.4212 105.691 43.7188 104.402C47.5371 102.911 49.5975 99.888 51.1787 97.8398C52.8694 93.4081 53.5678 87.9049 51.3408 81.6943C48.8394 77.2805 45.2546 74.3551 40.876 72.5615C39.7812 72.066 39.1792 70.8757 39.4287 69.7002C39.6785 68.5247 40.7124 67.6806 41.9141 67.6729C41.9371 67.6601 46.6012 67.4914 55.9844 62.7998L56.291 62.6465C60.7937 60.4161 65.7072 59.3569 70.6006 59.4658C75.494 59.3569 80.4074 60.4161 84.9102 62.6465L85.2168 62.7998C94.5977 67.4902 99.2618 67.66 99.2871 67.6729C100.489 67.6806 101.523 68.5247 101.772 69.7002C102.022 70.8757 101.42 72.066 100.325 72.5615C95.9466 74.3551 92.3618 77.2805 89.8604 81.6943C87.6655 87.8156 88.3114 93.2501 89.9492 97.6484C91.5507 99.6952 93.6206 102.863 97.5606 104.402C100.858 105.691 104.033 105.902 106.772 105.884C119.537 105.884 127.196 91.7939 129.89 85.7334C137.74 68.1361 136.774 49.986 127.304 37.1826C122.567 30.2919 114.625 26.3136 106.271 26.6475C102.612 26.9571 98.1717 28.8789 97.0615 32.3809C96.2214 36.2196 97.6956 40.1961 100.835 42.5596C101.656 43.2527 101.955 44.3848 101.586 45.3936C101.216 46.4021 100.257 47.0729 99.1826 47.0723C98.2489 47.0723 76.3154 46.8695 76.3154 31.6973V6.11621H64.9639V31.6973ZM123.125 75.6455C123.302 75.6458 123.479 75.6638 123.652 75.6992C125.035 75.9898 125.92 77.3452 125.63 78.7275C124.64 83.6342 122.596 88.2678 119.639 92.3066C116.116 97.3708 110.446 100.518 104.285 100.832C102.872 100.832 101.727 99.6872 101.727 98.2744C101.727 96.8616 102.872 95.7158 104.285 95.7158C108.814 95.384 112.948 93.0175 115.527 89.2803C118.043 85.8308 119.783 81.8769 120.626 77.6914C120.869 76.5032 121.912 75.6491 123.125 75.6455ZM33.4346 31.6973C34.8474 31.6973 35.9932 32.843 35.9932 34.2559C35.9929 35.6685 34.8472 36.8135 33.4346 36.8135C28.9055 37.1452 24.7707 39.5124 22.1914 43.25C19.6756 46.6993 17.9368 50.6526 17.0938 54.8379C16.8512 56.0263 15.8067 56.8814 14.5938 56.8848C14.417 56.8845 14.2406 56.8664 14.0674 56.8311C12.6851 56.5405 11.7997 55.1842 12.0898 53.8018C13.08 48.8952 15.1243 44.2624 18.0811 40.2236C21.6042 35.1592 27.2732 32.0108 33.4346 31.6973ZM70.0908 39.3721C71.5034 39.3723 72.6484 40.518 72.6484 41.9307V52.1631C72.6483 53.5757 71.5034 54.7205 70.0908 54.7207C68.6781 54.7207 67.5323 53.5758 67.5322 52.1631V41.9307C67.5322 40.5178 68.678 39.3721 70.0908 39.3721Z"/>
</mask>
<path d="M76.3047 1C79.1303 1 81.4209 3.2906 81.4209 6.11621V31.6973C81.4209 37.9647 88.2131 40.3948 93.3984 41.3516C91.5677 38.1548 91.1287 34.347 92.1836 30.8174C92.4439 30.0242 92.7963 29.2643 93.2344 28.5537C95.6647 24.6116 102.71 21.8116 105.844 21.5391C107.035 21.4399 111.331 21.5419 114.667 22.4551C118.849 23.5999 122.734 25.6383 126.053 28.4287C126.631 29.0992 129.187 31.1263 131.417 34.1406C142 48.4482 143.174 68.514 134.563 87.8125C131.463 94.7834 122.551 111 106.772 111C103.386 111.019 100.027 110.393 96.875 109.155C96.5912 109.052 95.8531 108.612 94.9805 108.033C89.9541 105.315 80.593 97.8587 85.4248 79.2998C87.1136 76.1578 89.484 73.4332 92.3623 71.3262C89.1252 70.2506 85.9725 68.9353 82.9307 67.3916L82.626 67.2383C79.3174 65.6006 75.3816 64.5316 71.3994 64.2061C66.8315 64.3486 62.2397 65.4244 58.5752 67.2383L58.2715 67.3916C55.2295 68.9353 52.0761 70.2506 48.8389 71.3262C51.7173 73.4333 54.0885 76.1577 55.7773 79.2998C60.468 97.3164 51.7819 104.869 46.6719 107.782C45.6413 108.481 44.7278 109.037 44.4043 109.155C41.2523 110.393 37.8931 111.019 34.5068 111C18.7284 111 9.81627 94.7834 6.71582 87.8125C-1.89484 68.514 -0.720671 48.4482 9.86231 34.1406C12.092 31.1262 14.6482 29.0991 15.2266 28.4287C18.5456 25.6382 22.4299 23.5999 26.6123 22.4551C29.9488 21.5418 34.2442 21.4399 35.4356 21.5391C38.5696 21.8116 45.6146 24.6116 48.0449 28.5537C48.483 29.2643 48.8354 30.0242 49.0957 30.8174C50.1506 34.3469 49.7116 38.1548 47.8809 41.3516C53.0662 40.3948 59.8584 37.9647 59.8584 31.6973V6.11621C59.8584 3.2906 62.149 1 64.9746 1H76.3047ZM64.9639 31.6973C64.9639 46.8695 43.0304 47.0723 42.0967 47.0723C41.0225 47.073 40.0618 46.4023 39.6924 45.3936C39.323 44.3848 39.6237 43.2527 40.4443 42.5596C43.5837 40.1961 45.0579 36.2196 44.2178 32.3809C43.1076 28.8789 38.6668 26.9571 35.0088 26.6475C26.6539 26.3136 18.7121 30.2919 13.9756 37.1826C4.50554 49.986 3.53782 68.1361 11.3887 85.7334C14.0825 91.7937 21.742 105.884 34.5068 105.884C37.2464 105.902 40.4212 105.691 43.7188 104.402C47.5371 102.911 49.5975 99.888 51.1787 97.8398C52.8694 93.4081 53.5678 87.9049 51.3408 81.6943C48.8394 77.2805 45.2546 74.3551 40.876 72.5615C39.7812 72.066 39.1792 70.8757 39.4287 69.7002C39.6785 68.5247 40.7124 67.6806 41.9141 67.6729C41.9371 67.6601 46.6012 67.4914 55.9844 62.7998L56.291 62.6465C60.7937 60.4161 65.7072 59.3569 70.6006 59.4658C75.494 59.3569 80.4074 60.4161 84.9102 62.6465L85.2168 62.7998C94.5977 67.4902 99.2618 67.66 99.2871 67.6729C100.489 67.6806 101.523 68.5247 101.772 69.7002C102.022 70.8757 101.42 72.066 100.325 72.5615C95.9466 74.3551 92.3618 77.2805 89.8604 81.6943C87.6655 87.8156 88.3114 93.2501 89.9492 97.6484C91.5507 99.6952 93.6206 102.863 97.5606 104.402C100.858 105.691 104.033 105.902 106.772 105.884C119.537 105.884 127.196 91.7939 129.89 85.7334C137.74 68.1361 136.774 49.986 127.304 37.1826C122.567 30.2919 114.625 26.3136 106.271 26.6475C102.612 26.9571 98.1717 28.8789 97.0615 32.3809C96.2214 36.2196 97.6956 40.1961 100.835 42.5596C101.656 43.2527 101.955 44.3848 101.586 45.3936C101.216 46.4021 100.257 47.0729 99.1826 47.0723C98.2489 47.0723 76.3154 46.8695 76.3154 31.6973V6.11621H64.9639V31.6973ZM123.125 75.6455C123.302 75.6458 123.479 75.6638 123.652 75.6992C125.035 75.9898 125.92 77.3452 125.63 78.7275C124.64 83.6342 122.596 88.2678 119.639 92.3066C116.116 97.3708 110.446 100.518 104.285 100.832C102.872 100.832 101.727 99.6872 101.727 98.2744C101.727 96.8616 102.872 95.7158 104.285 95.7158C108.814 95.384 112.948 93.0175 115.527 89.2803C118.043 85.8308 119.783 81.8769 120.626 77.6914C120.869 76.5032 121.912 75.6491 123.125 75.6455ZM33.4346 31.6973C34.8474 31.6973 35.9932 32.843 35.9932 34.2559C35.9929 35.6685 34.8472 36.8135 33.4346 36.8135C28.9055 37.1452 24.7707 39.5124 22.1914 43.25C19.6756 46.6993 17.9368 50.6526 17.0938 54.8379C16.8512 56.0263 15.8067 56.8814 14.5938 56.8848C14.417 56.8845 14.2406 56.8664 14.0674 56.8311C12.6851 56.5405 11.7997 55.1842 12.0898 53.8018C13.08 48.8952 15.1243 44.2624 18.0811 40.2236C21.6042 35.1592 27.2732 32.0108 33.4346 31.6973ZM70.0908 39.3721C71.5034 39.3723 72.6484 40.518 72.6484 41.9307V52.1631C72.6483 53.5757 71.5034 54.7205 70.0908 54.7207C68.6781 54.7207 67.5323 53.5758 67.5322 52.1631V41.9307C67.5322 40.5178 68.678 39.3721 70.0908 39.3721Z" fill="#FFC59E"/>
<path d="M81.4209 6.11621L82.4209 6.11621L82.4209 6.1162L81.4209 6.11621ZM93.3984 41.3516L93.217 42.335L95.3381 42.7263L94.2662 40.8546L93.3984 41.3516ZM92.1836 30.8174L91.2335 30.5056L91.2293 30.5182L91.2255 30.531L92.1836 30.8174ZM93.2344 28.5537L92.3831 28.0289L92.3831 28.0289L93.2344 28.5537ZM105.844 21.5391L105.761 20.5425L105.757 20.5428L105.844 21.5391ZM114.667 22.4551L114.931 21.4906L114.931 21.4906L114.667 22.4551ZM126.053 28.4287L126.81 27.7754L126.758 27.7148L126.696 27.6633L126.053 28.4287ZM131.417 34.1406L132.221 33.546L132.221 33.5459L131.417 34.1406ZM134.563 87.8125L133.65 87.405L133.65 87.4061L134.563 87.8125ZM106.772 111L106.772 110L106.767 110L106.772 111ZM96.875 109.155L97.2405 108.224L97.2292 108.22L97.2178 108.216L96.875 109.155ZM94.9805 108.033L95.5329 107.2L95.4956 107.175L95.4561 107.154L94.9805 108.033ZM85.4248 79.2998L84.544 78.8264L84.4873 78.9319L84.4571 79.0479L85.4248 79.2998ZM92.3623 71.3262L92.953 72.1331L94.5168 70.9883L92.6776 70.3772L92.3623 71.3262ZM82.9307 67.3916L83.3832 66.4999L83.3802 66.4983L82.9307 67.3916ZM82.626 67.2383L83.0755 66.345L83.0696 66.3421L82.626 67.2383ZM71.3994 64.2061L71.4809 63.2094L71.4246 63.2048L71.3682 63.2065L71.3994 64.2061ZM58.5752 67.2383L58.1316 66.342L58.1245 66.3456L58.5752 67.2383ZM58.2715 67.3916L57.8208 66.4989L57.8189 66.4999L58.2715 67.3916ZM48.8389 71.3262L48.5236 70.3772L46.6843 70.9883L48.2482 72.1331L48.8389 71.3262ZM55.7773 79.2998L56.7451 79.0479L56.7149 78.9319L56.6582 78.8264L55.7773 79.2998ZM46.6719 107.782L46.1767 106.913L46.1428 106.933L46.1105 106.955L46.6719 107.782ZM44.4043 109.155L44.0615 108.216L44.0501 108.22L44.0388 108.224L44.4043 109.155ZM34.5068 111L34.5126 110L34.5068 110L34.5068 111ZM6.71582 87.8125L7.62953 87.4061L7.62905 87.405L6.71582 87.8125ZM9.86231 34.1406L9.05835 33.5459L9.05834 33.546L9.86231 34.1406ZM15.2266 28.4287L14.583 27.6633L14.5217 27.7148L14.4694 27.7755L15.2266 28.4287ZM26.6123 22.4551L26.3483 21.4906L26.3483 21.4906L26.6123 22.4551ZM35.4356 21.5391L35.5222 20.5428L35.5185 20.5425L35.4356 21.5391ZM48.0449 28.5537L48.8962 28.0289L48.8962 28.0289L48.0449 28.5537ZM49.0957 30.8174L50.0538 30.531L50.05 30.5182L50.0458 30.5056L49.0957 30.8174ZM47.8809 41.3516L47.0131 40.8546L45.9412 42.7263L48.0623 42.335L47.8809 41.3516ZM59.8584 6.11621L58.8584 6.1162V6.11621H59.8584ZM42.0967 47.0723L42.0967 46.0723L42.096 46.0723L42.0967 47.0723ZM39.6924 45.3936L38.7534 45.7374L38.7534 45.7374L39.6924 45.3936ZM40.4443 42.5596L39.8429 41.7607L39.8205 41.7775L39.7991 41.7956L40.4443 42.5596ZM44.2178 32.3809L45.1947 32.1671L45.1849 32.1223L45.171 32.0787L44.2178 32.3809ZM35.0088 26.6475L35.0931 25.651L35.071 25.6491L35.0487 25.6483L35.0088 26.6475ZM13.9756 37.1826L14.7796 37.7773L14.7899 37.7634L14.7997 37.7491L13.9756 37.1826ZM11.3887 85.7334L12.3025 85.3272L12.3019 85.326L11.3887 85.7334ZM34.5068 105.884L34.5136 104.884L34.5068 104.884L34.5068 105.884ZM43.7188 104.402L44.0827 105.334L44.0827 105.334L43.7188 104.402ZM51.1787 97.8398L51.9703 98.4509L52.0604 98.3341L52.113 98.1963L51.1787 97.8398ZM51.3408 81.6943L52.2821 81.3568L52.2532 81.276L52.2108 81.2013L51.3408 81.6943ZM40.876 72.5615L40.4636 73.4725L40.4801 73.48L40.4969 73.4869L40.876 72.5615ZM39.4287 69.7002L38.4505 69.4924L38.4505 69.4925L39.4287 69.7002ZM41.9141 67.6729L41.9205 68.6728L42.1762 68.6712L42.3997 68.547L41.9141 67.6729ZM55.9844 62.7998L55.5372 61.9054L55.5372 61.9054L55.9844 62.7998ZM56.291 62.6465L55.8471 61.7504L55.8438 61.7521L56.291 62.6465ZM70.6006 59.4658L70.5783 60.4656L70.6006 60.4661L70.6228 60.4656L70.6006 59.4658ZM84.9102 62.6465L85.3574 61.7521L85.354 61.7504L84.9102 62.6465ZM85.2168 62.7998L85.664 61.9054L85.664 61.9054L85.2168 62.7998ZM99.2871 67.6729L98.8346 68.5646L99.0449 68.6713L99.2807 68.6728L99.2871 67.6729ZM101.772 69.7002L102.751 69.4925L102.751 69.4924L101.772 69.7002ZM100.325 72.5615L100.704 73.4869L100.721 73.48L100.738 73.4725L100.325 72.5615ZM89.8604 81.6943L88.9904 81.2013L88.948 81.276L88.919 81.3568L89.8604 81.6943ZM89.9492 97.6484L89.0121 97.9974L89.0662 98.1426L89.1617 98.2647L89.9492 97.6484ZM97.5606 104.402L97.1966 105.334L97.1966 105.334L97.5606 104.402ZM106.772 105.884L106.772 104.884L106.766 104.884L106.772 105.884ZM129.89 85.7334L128.976 85.326L128.976 85.3272L129.89 85.7334ZM127.304 37.1826L126.48 37.7491L126.489 37.7633L126.5 37.7773L127.304 37.1826ZM106.271 26.6475L106.231 25.6483L106.208 25.6491L106.186 25.651L106.271 26.6475ZM97.0615 32.3809L96.1083 32.0787L96.0944 32.1223L96.0846 32.1671L97.0615 32.3809ZM100.835 42.5596L101.48 41.7956L101.459 41.7775L101.436 41.7607L100.835 42.5596ZM101.586 45.3936L102.525 45.7375L102.525 45.7374L101.586 45.3936ZM99.1826 47.0723L99.1833 46.0723H99.1826V47.0723ZM76.3154 6.11621H77.3154V5.11621H76.3154V6.11621ZM64.9639 6.11621V5.11621H63.9639V6.11621H64.9639ZM123.125 75.6455L123.126 74.6455L123.122 74.6455L123.125 75.6455ZM123.652 75.6992L123.858 74.7206L123.853 74.7195L123.652 75.6992ZM125.63 78.7275L124.651 78.5222L124.65 78.5297L125.63 78.7275ZM119.639 92.3066L118.832 91.7159L118.825 91.7257L118.818 91.7356L119.639 92.3066ZM104.285 100.832V101.832H104.311L104.336 101.831L104.285 100.832ZM101.727 98.2744H100.727L100.727 98.2745L101.727 98.2744ZM104.285 95.7158V96.7158H104.322L104.358 96.7131L104.285 95.7158ZM115.527 89.2803L114.719 88.691L114.712 88.7015L114.704 88.7123L115.527 89.2803ZM120.626 77.6914L119.646 77.4913L119.646 77.494L120.626 77.6914ZM33.4346 31.6973V30.6973H33.4091L33.3838 30.6986L33.4346 31.6973ZM35.9932 34.2559L36.9932 34.256V34.2559H35.9932ZM33.4346 36.8135V35.8135H33.398L33.3615 35.8161L33.4346 36.8135ZM22.1914 43.25L22.9993 43.8393L23.007 43.8287L23.0145 43.818L22.1914 43.25ZM17.0938 54.8379L18.0736 55.0379L18.0741 55.0354L17.0938 54.8379ZM14.5938 56.8848L14.5922 57.8848L14.5965 57.8848L14.5938 56.8848ZM14.0674 56.8311L13.8617 57.8097L13.8672 57.8108L14.0674 56.8311ZM12.0898 53.8018L13.0686 54.0071L13.0701 53.9996L12.0898 53.8018ZM18.0811 40.2236L18.8879 40.8144L18.8951 40.8046L18.902 40.7947L18.0811 40.2236ZM70.0908 39.3721L70.091 38.3721H70.0908V39.3721ZM72.6484 52.1631L73.6484 52.1632V52.1631H72.6484ZM70.0908 54.7207L70.0908 55.7207L70.091 55.7207L70.0908 54.7207ZM67.5322 52.1631L66.5322 52.1631L66.5322 52.1632L67.5322 52.1631ZM76.3047 1V2C78.578 2 80.4209 3.84288 80.4209 6.11622L81.4209 6.11621L82.4209 6.1162C82.4209 2.73832 79.6826 0 76.3047 0V1ZM81.4209 6.11621H80.4209V31.6973H81.4209H82.4209V6.11621H81.4209ZM81.4209 31.6973H80.4209C80.4209 35.2689 82.3852 37.7223 84.9238 39.3567C87.4313 40.9711 90.5752 41.8475 93.217 42.335L93.3984 41.3516L93.5799 40.3682C91.0363 39.8989 88.1915 39.0818 86.0065 37.6751C83.8527 36.2885 82.4209 34.393 82.4209 31.6973H81.4209ZM93.3984 41.3516L94.2662 40.8546C92.5716 37.8956 92.1652 34.3709 93.1417 31.1037L92.1836 30.8174L91.2255 30.531C90.0921 34.323 90.5638 38.414 92.5307 41.8485L93.3984 41.3516ZM92.1836 30.8174L93.1337 31.1292C93.3697 30.4103 93.689 29.7219 94.0856 29.0785L93.2344 28.5537L92.3831 28.0289C91.9037 28.8067 91.5181 29.6381 91.2335 30.5056L92.1836 30.8174ZM93.2344 28.5537L94.0856 29.0785C95.1543 27.345 97.3225 25.7632 99.7219 24.565C102.11 23.3726 104.53 22.6571 105.93 22.5353L105.844 21.5391L105.757 20.5428C104.024 20.6936 101.354 21.5144 98.8284 22.7757C96.3142 24.0311 93.7448 25.8203 92.3831 28.0289L93.2344 28.5537ZM105.844 21.5391L105.927 22.5356C107.022 22.4445 111.198 22.5423 114.403 23.4196L114.667 22.4551L114.931 21.4906C111.463 20.5414 107.048 20.4354 105.761 20.5425L105.844 21.5391ZM114.667 22.4551L114.403 23.4196C118.446 24.5263 122.201 26.4966 125.409 29.1941L126.053 28.4287L126.696 27.6633C123.267 24.7799 119.253 22.6736 114.931 21.4906L114.667 22.4551ZM126.053 28.4287L125.296 29.082C125.485 29.3012 125.803 29.5981 126.14 29.9119C126.498 30.2455 126.932 30.6473 127.417 31.121C128.386 32.0676 129.541 33.2866 130.613 34.7353L131.417 34.1406L132.221 33.5459C131.063 31.9803 129.826 30.6786 128.815 29.6905C128.309 29.1967 127.856 28.7776 127.503 28.4484C127.128 28.0994 126.91 27.8914 126.81 27.7754L126.053 28.4287ZM131.417 34.1406L130.613 34.7353C140.938 48.6935 142.147 68.3623 133.65 87.405L134.563 87.8125L135.477 88.22C144.201 68.6657 143.062 48.2029 132.221 33.546L131.417 34.1406ZM134.563 87.8125L133.65 87.4061C132.121 90.8435 129.171 96.528 124.69 101.339C120.213 106.145 114.287 110 106.772 110L106.772 111L106.772 112C115.036 112 121.455 107.746 126.154 102.702C130.849 97.6616 133.906 91.7523 135.477 88.2189L134.563 87.8125ZM106.772 111L106.767 110C103.508 110.019 100.274 109.416 97.2405 108.224L96.875 109.155L96.5095 110.086C99.7796 111.37 103.265 112.02 106.778 112L106.772 111ZM96.875 109.155L97.2178 108.216C97.2202 108.217 97.207 108.212 97.1736 108.196C97.1421 108.181 97.1008 108.161 97.0492 108.133C96.9456 108.079 96.8146 108.005 96.6589 107.912C96.3479 107.728 95.9598 107.483 95.5329 107.2L94.9805 108.033L94.428 108.867C94.8738 109.162 95.291 109.426 95.6382 109.632C95.9589 109.823 96.2903 110.006 96.5323 110.095L96.875 109.155ZM94.9805 108.033L95.4561 107.154C93.0451 105.85 89.6321 103.429 87.3921 99.1436C85.1622 94.8777 84.0275 88.6357 86.3925 79.5518L85.4248 79.2998L84.4571 79.0479C81.9902 88.5228 83.1202 95.2885 85.6196 100.07C88.1087 104.832 91.8896 107.499 94.5048 108.913L94.9805 108.033ZM85.4248 79.2998L86.3056 79.7732C87.9238 76.7626 90.1951 74.152 92.953 72.1331L92.3623 71.3262L91.7716 70.5193C88.7729 72.7145 86.3034 75.553 84.544 78.8264L85.4248 79.2998ZM92.3623 71.3262L92.6776 70.3772C89.4876 69.3173 86.3809 68.0211 83.3832 66.4999L82.9307 67.3916L82.4781 68.2833C85.5642 69.8495 88.7627 71.184 92.047 72.2752L92.3623 71.3262ZM82.9307 67.3916L83.3802 66.4983L83.0755 66.345L82.626 67.2383L82.1765 68.1316L82.4812 68.2849L82.9307 67.3916ZM82.626 67.2383L83.0696 66.3421C79.6401 64.6445 75.5802 63.5445 71.4809 63.2094L71.3994 64.2061L71.3179 65.2027C75.183 65.5187 78.9948 66.5567 82.1824 68.1345L82.626 67.2383ZM71.3994 64.2061L71.3682 63.2065C66.6764 63.353 61.9409 64.4565 58.1316 66.3421L58.5752 67.2383L59.0188 68.1345C62.5386 66.3923 66.9866 65.3443 71.4306 65.2056L71.3994 64.2061ZM58.5752 67.2383L58.1245 66.3456L57.8208 66.4989L58.2715 67.3916L58.7221 68.2843L59.0259 68.131L58.5752 67.2383ZM58.2715 67.3916L57.8189 66.4999C54.8213 68.0211 51.7137 69.3173 48.5236 70.3772L48.8389 71.3262L49.1542 72.2752C52.4385 71.184 55.6378 69.8496 58.724 68.2833L58.2715 67.3916ZM48.8389 71.3262L48.2482 72.1331C51.0063 74.1521 53.2784 76.7626 54.8965 79.7732L55.7773 79.2998L56.6582 78.8264C54.8987 75.5527 52.4282 72.7144 49.4296 70.5193L48.8389 71.3262ZM55.7773 79.2998L54.8096 79.5518C57.1058 88.3715 56.1022 94.5109 54.0032 98.7622C51.8963 103.029 48.6251 105.518 46.1767 106.913L46.6719 107.782L47.1671 108.651C49.8287 107.134 53.4555 104.389 55.7965 99.6476C58.1454 94.8901 59.1395 88.2447 56.7451 79.0479L55.7773 79.2998ZM46.6719 107.782L46.1105 106.955C45.6055 107.297 45.1342 107.601 44.7544 107.832C44.5643 107.947 44.4025 108.04 44.2744 108.11C44.2105 108.144 44.1589 108.171 44.1191 108.19C44.0767 108.21 44.0595 108.217 44.0615 108.216L44.4043 109.155L44.7471 110.095C45.0158 109.997 45.4071 109.775 45.7914 109.542C46.207 109.29 46.7076 108.966 47.2333 108.61L46.6719 107.782ZM44.4043 109.155L44.0388 108.224C41.0049 109.416 37.7718 110.019 34.5126 110L34.5068 111L34.5011 112C38.0145 112.02 41.4996 111.37 44.7698 110.086L44.4043 109.155ZM34.5068 111L34.5068 110C26.9924 110 21.066 106.145 16.5888 101.339C12.1079 96.528 9.1584 90.8436 7.62952 87.4061L6.71582 87.8125L5.80212 88.2189C7.37369 91.7523 10.4305 97.6616 15.1253 102.702C19.8239 107.746 26.2428 112 34.5068 112L34.5068 111ZM6.71582 87.8125L7.62905 87.405C-0.867511 68.3622 0.341709 48.6936 10.6663 34.7353L9.86231 34.1406L9.05834 33.546C-1.78305 48.2029 -2.92216 68.6657 5.8026 88.22L6.71582 87.8125ZM9.86231 34.1406L10.6663 34.7353C11.7378 33.2866 12.8937 32.0675 13.8626 31.1209C14.3473 30.6472 14.7813 30.2455 15.1395 29.9119C15.4764 29.598 15.7946 29.3012 15.9837 29.082L15.2266 28.4287L14.4694 27.7755C14.3694 27.8914 14.1511 28.0993 13.7764 28.4484C13.423 28.7775 12.9701 29.1967 12.4648 29.6904C11.4535 30.6785 10.2165 31.9802 9.05835 33.5459L9.86231 34.1406ZM15.2266 28.4287L15.8701 29.1941C19.0786 26.4966 22.8334 24.5262 26.8763 23.4196L26.6123 22.4551L26.3483 21.4906C22.0264 22.6736 18.0127 24.7798 14.583 27.6633L15.2266 28.4287ZM26.6123 22.4551L26.8763 23.4196C30.0816 22.5423 34.2573 22.4445 35.3526 22.5356L35.4356 21.5391L35.5185 20.5425C34.231 20.4354 29.816 20.5414 26.3483 21.4906L26.6123 22.4551ZM35.4356 21.5391L35.3489 22.5353C36.7497 22.6571 39.1695 23.3726 41.5574 24.565C43.9568 25.7632 46.125 27.345 47.1937 29.0785L48.0449 28.5537L48.8962 28.0289C47.5345 25.8203 44.9651 24.0311 42.4509 22.7757C39.9252 21.5144 37.2554 20.6936 35.5222 20.5428L35.4356 21.5391ZM48.0449 28.5537L47.1937 29.0785C47.5903 29.7219 47.9096 30.4103 48.1456 31.1292L49.0957 30.8174L50.0458 30.5056C49.7612 29.6381 49.3756 28.8067 48.8962 28.0289L48.0449 28.5537ZM49.0957 30.8174L48.1376 31.1037C49.1141 34.3709 48.7076 37.8956 47.0131 40.8546L47.8809 41.3516L48.7486 41.8485C50.7155 38.414 51.1872 34.323 50.0538 30.531L49.0957 30.8174ZM47.8809 41.3516L48.0623 42.335C50.7041 41.8475 53.848 40.9711 56.3555 39.3567C58.8941 37.7223 60.8584 35.2689 60.8584 31.6973H59.8584H58.8584C58.8584 34.393 57.4266 36.2884 55.2728 37.6751C53.0878 39.0818 50.243 39.8989 47.6994 40.3682L47.8809 41.3516ZM59.8584 31.6973H60.8584V6.11621H59.8584H58.8584V31.6973H59.8584ZM59.8584 6.11621L60.8584 6.11622C60.8584 3.84288 62.7013 2 64.9746 2V1V0C61.5967 0 58.8584 2.73832 58.8584 6.1162L59.8584 6.11621ZM64.9746 1V2H76.3047V1V0H64.9746V1ZM64.9639 31.6973H63.9639C63.9639 38.6417 59.0016 42.235 53.552 44.1298C48.1126 46.0212 42.5307 46.0723 42.0967 46.0723V47.0723V48.0723C42.5964 48.0723 48.4481 48.022 54.2088 46.0189C59.9595 44.0193 65.9639 39.9251 65.9639 31.6973H64.9639ZM42.0967 47.0723L42.096 46.0723C41.4417 46.0727 40.8564 45.6641 40.6314 45.0497L39.6924 45.3936L38.7534 45.7374C39.2672 47.1405 40.6032 48.0733 42.0974 48.0723L42.0967 47.0723ZM39.6924 45.3936L40.6314 45.0497C40.4065 44.4356 40.5895 43.746 41.0896 43.3235L40.4443 42.5596L39.7991 41.7956C38.6579 42.7595 38.2395 44.334 38.7534 45.7374L39.6924 45.3936ZM40.4443 42.5596L41.0458 43.3585C44.4975 40.7598 46.1184 36.3877 45.1947 32.1671L44.2178 32.3809L43.2409 32.5947C43.9974 36.0514 42.6699 39.6323 39.8429 41.7607L40.4443 42.5596ZM44.2178 32.3809L45.171 32.0787C44.5132 30.0037 42.897 28.4763 41.0579 27.4448C39.2131 26.4102 37.0475 25.8165 35.0931 25.651L35.0088 26.6475L34.9244 27.6439C36.6282 27.7881 38.5119 28.31 40.0796 29.1892C41.6529 30.0716 42.8122 31.2561 43.2645 32.6831L44.2178 32.3809ZM35.0088 26.6475L35.0487 25.6483C26.3505 25.3007 18.0825 29.4424 13.1515 36.6162L13.9756 37.1826L14.7997 37.7491C19.3416 31.1414 26.9572 27.3265 34.9689 27.6467L35.0088 26.6475ZM13.9756 37.1826L13.1716 36.588C3.43875 49.7467 2.51412 68.296 10.4754 86.1408L11.3887 85.7334L12.3019 85.326C4.56151 67.9763 5.57232 50.2254 14.7796 37.7773L13.9756 37.1826ZM11.3887 85.7334L10.4749 86.1396C11.8415 89.214 14.4804 94.3586 18.4274 98.7497C22.3716 103.138 27.7267 106.884 34.5068 106.884L34.5068 105.884L34.5068 104.884C28.5221 104.884 23.665 101.585 19.9148 97.4127C16.1674 93.2437 13.6297 88.3131 12.3025 85.3272L11.3887 85.7334ZM34.5068 105.884L34.5001 106.884C37.2948 106.903 40.6148 106.689 44.0827 105.334L43.7188 104.402L43.3548 103.471C40.2275 104.693 37.198 104.902 34.5136 104.884L34.5068 105.884ZM43.7188 104.402L44.0827 105.334C48.2079 103.722 50.4335 100.442 51.9703 98.4509L51.1787 97.8398L50.3872 97.2287C48.7615 99.3345 46.8662 102.099 43.3548 103.471L43.7188 104.402ZM51.1787 97.8398L52.113 98.1963C53.8732 93.5824 54.6033 87.8302 52.2821 81.3568L51.3408 81.6943L50.3995 82.0319C52.5322 87.9796 51.8656 93.2337 50.2444 97.4834L51.1787 97.8398ZM51.3408 81.6943L52.2108 81.2013C49.5902 76.577 45.8242 73.5078 41.255 71.6361L40.876 72.5615L40.4969 73.4869C44.685 75.2024 48.0886 77.9839 50.4708 82.1874L51.3408 81.6943ZM40.876 72.5615L41.2883 71.6505C40.6215 71.3487 40.2549 70.6238 40.4069 69.9079L39.4287 69.7002L38.4505 69.4925C38.1034 71.1275 38.9409 72.7833 40.4636 73.4725L40.876 72.5615ZM39.4287 69.7002L40.4069 69.908C40.5591 69.1914 41.1893 68.6776 41.9205 68.6728L41.9141 67.6729L41.9076 66.6729C40.2355 66.6837 38.7978 67.858 38.4505 69.4924L39.4287 69.7002ZM41.9141 67.6729L42.3997 68.547C42.2681 68.6201 42.148 68.6451 42.1455 68.6456C42.1126 68.6535 42.0865 68.6578 42.0755 68.6596C42.0517 68.6635 42.0334 68.6655 42.0293 68.666C42.0181 68.6672 42.0109 68.6678 42.0151 68.6674C42.0227 68.6668 42.0298 68.6662 42.0543 68.6642C42.0962 68.6608 42.1588 68.6555 42.2412 68.6471C42.4058 68.6305 42.6439 68.6023 42.9558 68.554C43.5793 68.4575 44.4933 68.281 45.699 67.9565C48.1104 67.3076 51.6848 66.0676 56.4316 63.6942L55.9844 62.7998L55.5372 61.9054C50.9007 64.2236 47.4515 65.4138 45.1793 66.0252C44.0432 66.331 43.2005 66.4923 42.6497 66.5776C42.3744 66.6202 42.1712 66.644 42.0396 66.6573C41.9739 66.664 41.9248 66.6681 41.8913 66.6709C41.878 66.672 41.8565 66.6737 41.8446 66.6747C41.839 66.6752 41.8242 66.6764 41.8078 66.6783C41.801 66.679 41.7807 66.6813 41.7554 66.6854C41.7436 66.6873 41.7169 66.6918 41.6835 66.6997C41.6806 66.7004 41.5602 66.7255 41.4284 66.7987L41.9141 67.6729ZM55.9844 62.7998L56.4316 63.6942L56.7382 63.5409L56.291 62.6465L55.8438 61.7521L55.5372 61.9054L55.9844 62.7998ZM56.291 62.6465L56.7349 63.5426C61.0908 61.3849 65.844 60.3602 70.5783 60.4656L70.6006 59.4658L70.6228 58.4661C65.5704 58.3536 60.4967 59.4472 55.8471 61.7504L56.291 62.6465ZM70.6006 59.4658L70.6228 60.4656C75.3572 60.3602 80.1104 61.3849 84.4663 63.5426L84.9102 62.6465L85.354 61.7504C80.7044 59.4472 75.6308 58.3536 70.5783 58.4661L70.6006 59.4658ZM84.9102 62.6465L84.4629 63.5409L84.7696 63.6942L85.2168 62.7998L85.664 61.9054L85.3574 61.7521L84.9102 62.6465ZM85.2168 62.7998L84.7696 63.6942C89.5152 66.067 93.089 67.307 95.5003 67.956C96.706 68.2806 97.6202 68.4572 98.244 68.5538C98.556 68.6021 98.7943 68.6303 98.9591 68.647C99.0416 68.6554 99.1044 68.6608 99.1465 68.6642C99.171 68.6662 99.1782 68.6668 99.186 68.6674C99.1903 68.6678 99.1834 68.6672 99.1726 68.6661C99.1685 68.6656 99.1511 68.6637 99.1284 68.6601C99.1177 68.6584 99.0933 68.6543 99.0626 68.6473C99.0565 68.6459 98.9523 68.6243 98.8346 68.5646L99.2871 67.6729L99.7396 66.7811C99.6217 66.7213 99.5172 66.6996 99.5106 66.6981C99.4794 66.6909 99.4544 66.6868 99.443 66.685C99.4187 66.6811 99.3992 66.6789 99.3924 66.6782C99.3764 66.6764 99.3619 66.6752 99.3562 66.6747C99.3444 66.6737 99.3228 66.6719 99.3095 66.6709C99.2759 66.6681 99.2267 66.6639 99.1609 66.6572C99.0291 66.6439 98.8257 66.6201 98.5502 66.5774C97.9992 66.492 97.1563 66.3306 96.0202 66.0248C93.748 65.4132 90.2993 64.223 85.664 61.9054L85.2168 62.7998ZM99.2871 67.6729L99.2807 68.6728C100.012 68.6775 100.642 69.1913 100.794 69.908L101.772 69.7002L102.751 69.4924C102.403 67.858 100.966 66.6836 99.2935 66.6729L99.2871 67.6729ZM101.772 69.7002L100.794 69.9079C100.946 70.6238 100.58 71.3487 99.9128 71.6505L100.325 72.5615L100.738 73.4725C102.26 72.7833 103.098 71.1275 102.751 69.4925L101.772 69.7002ZM100.325 72.5615L99.9461 71.6361C95.377 73.5078 91.611 76.5771 88.9904 81.2013L89.8604 81.6943L90.7304 82.1874C93.1125 77.984 96.5162 75.2024 100.704 73.4869L100.325 72.5615ZM89.8604 81.6943L88.919 81.3568C86.6315 87.7365 87.3064 93.4169 89.0121 97.9974L89.9492 97.6484L90.8864 97.2995C89.3163 93.0832 88.6994 87.8946 90.8017 82.0319L89.8604 81.6943ZM89.9492 97.6484L89.1617 98.2647C90.7008 100.232 92.9458 103.673 97.1966 105.334L97.5606 104.402L97.9245 103.471C94.2955 102.053 92.4007 99.1587 90.7368 97.0322L89.9492 97.6484ZM97.5606 104.402L97.1966 105.334C100.664 106.689 103.985 106.903 106.779 106.884L106.772 105.884L106.766 104.884C104.081 104.902 101.052 104.693 97.9245 103.471L97.5606 104.402ZM106.772 105.884L106.772 106.884C113.552 106.884 118.907 103.138 122.851 98.7497C126.798 94.3586 129.437 89.2141 130.803 86.1396L129.89 85.7334L128.976 85.3272C127.649 88.3132 125.111 93.2438 121.364 97.4127C117.614 101.585 112.757 104.884 106.772 104.884L106.772 105.884ZM129.89 85.7334L130.803 86.1408C138.764 68.296 137.841 49.7467 128.108 36.588L127.304 37.1826L126.5 37.7773C135.707 50.2254 136.717 67.9763 128.976 85.326L129.89 85.7334ZM127.304 37.1826L128.128 36.6162C123.197 29.4424 114.929 25.3007 106.231 25.6483L106.271 26.6475L106.31 27.6467C114.322 27.3265 121.938 31.1414 126.48 37.7491L127.304 37.1826ZM106.271 26.6475L106.186 25.651C104.232 25.8164 102.066 26.4102 100.221 27.4448C98.3823 28.4762 96.7661 30.0037 96.1083 32.0787L97.0615 32.3809L98.0148 32.6831C98.4672 31.2561 99.6264 30.0716 101.2 29.1892C102.767 28.31 104.651 27.7881 106.355 27.6439L106.271 26.6475ZM97.0615 32.3809L96.0846 32.1671C95.1609 36.3877 96.7818 40.7598 100.234 43.3585L100.835 42.5596L101.436 41.7607C98.6094 39.6323 97.2819 36.0514 98.0384 32.5947L97.0615 32.3809ZM100.835 42.5596L100.19 43.3235C100.689 43.7455 100.872 44.435 100.647 45.0497L101.586 45.3936L102.525 45.7374C103.039 44.3347 102.622 42.76 101.48 41.7956L100.835 42.5596ZM101.586 45.3936L100.647 45.0496C100.422 45.6643 99.837 46.0727 99.1833 46.0723L99.1826 47.0723L99.182 48.0723C100.676 48.0732 102.011 47.1399 102.525 45.7375L101.586 45.3936ZM99.1826 47.0723V46.0723C98.7486 46.0723 93.1667 46.0212 87.7273 44.1298C82.2778 42.235 77.3154 38.6417 77.3154 31.6973H76.3154H75.3154C75.3154 39.9251 81.3199 44.0193 87.0705 46.0189C92.8312 48.022 98.6829 48.0723 99.1826 48.0723V47.0723ZM76.3154 31.6973H77.3154V6.11621H76.3154H75.3154V31.6973H76.3154ZM76.3154 6.11621V5.11621H64.9639V6.11621V7.11621H76.3154V6.11621ZM64.9639 6.11621H63.9639V31.6973H64.9639H65.9639V6.11621H64.9639ZM123.125 75.6455L123.124 76.6455C123.234 76.6457 123.344 76.6569 123.452 76.6789L123.652 75.6992L123.853 74.7195C123.614 74.6706 123.37 74.6459 123.126 74.6455L123.125 75.6455ZM123.652 75.6992L123.447 76.6778C124.289 76.8549 124.828 77.6805 124.651 78.5222L125.63 78.7275L126.609 78.9329C127.012 77.0099 125.78 75.1247 123.858 74.7206L123.652 75.6992ZM125.63 78.7275L124.65 78.5297C123.688 83.2944 121.703 87.7939 118.832 91.7159L119.639 92.3066L120.446 92.8974C123.488 88.7416 125.591 83.974 126.61 78.9253L125.63 78.7275ZM119.639 92.3066L118.818 91.7356C115.471 96.5457 110.087 99.5354 104.234 99.8333L104.285 100.832L104.336 101.831C110.806 101.501 116.76 98.196 120.46 92.8777L119.639 92.3066ZM104.285 100.832V99.832C103.424 99.832 102.727 99.1344 102.727 98.2744L101.727 98.2744L100.727 98.2745C100.727 100.24 102.321 101.832 104.285 101.832V100.832ZM101.727 98.2744H102.727C102.727 97.4139 103.425 96.7158 104.285 96.7158V95.7158V94.7158C102.32 94.7158 100.727 96.3093 100.727 98.2744H101.727ZM104.285 95.7158L104.358 96.7131C109.189 96.3592 113.599 93.8349 116.35 89.8483L115.527 89.2803L114.704 88.7123C112.297 92.2002 108.439 94.4088 104.212 94.7185L104.285 95.7158ZM115.527 89.2803L116.335 89.8696C118.936 86.3035 120.735 82.2159 121.606 77.8889L120.626 77.6914L119.646 77.494C118.831 81.5379 117.15 85.3581 114.719 88.691L115.527 89.2803ZM120.626 77.6914L121.606 77.8915C121.753 77.168 122.389 76.6477 123.128 76.6455L123.125 75.6455L123.122 74.6455C121.436 74.6504 119.984 75.8383 119.646 77.4913L120.626 77.6914ZM33.4346 31.6973V32.6973C34.2951 32.6973 34.9932 33.3953 34.9932 34.2559H35.9932H36.9932C36.9932 32.2908 35.3997 30.6973 33.4346 30.6973V31.6973ZM35.9932 34.2559L34.9932 34.2557C34.993 35.1158 34.2953 35.8135 33.4346 35.8135V36.8135V37.8135C35.3992 37.8135 36.9929 36.2211 36.9932 34.256L35.9932 34.2559ZM33.4346 36.8135L33.3615 35.8161C28.5303 36.17 24.1197 38.6951 21.3684 42.682L22.1914 43.25L23.0145 43.818C25.4217 40.3297 29.2807 38.1204 33.5076 37.8108L33.4346 36.8135ZM22.1914 43.25L21.3835 42.6607C18.7825 46.2267 16.985 50.3137 16.1134 54.6404L17.0938 54.8379L18.0741 55.0354C18.8886 50.9915 20.5686 47.1719 22.9993 43.8393L22.1914 43.25ZM17.0938 54.8379L16.114 54.6379C15.9662 55.3616 15.3299 55.8827 14.591 55.8848L14.5938 56.8848L14.5965 57.8848C16.2835 57.88 17.7361 56.691 18.0736 55.0379L17.0938 54.8379ZM14.5938 56.8848L14.5953 55.8848C14.4855 55.8846 14.3757 55.8734 14.2676 55.8513L14.0674 56.8311L13.8672 57.8108C14.1055 57.8595 14.3484 57.8844 14.5922 57.8848L14.5938 56.8848ZM14.0674 56.8311L14.2731 55.8524C13.4312 55.6755 12.8918 54.8493 13.0685 54.0071L12.0898 53.8018L11.1112 53.5964C10.7077 55.519 11.9389 57.4056 13.8617 57.8097L14.0674 56.8311ZM12.0898 53.8018L13.0701 53.9996C14.0315 49.235 16.0167 44.7363 18.8879 40.8144L18.0811 40.2236L17.2742 39.6329C14.2318 43.7885 12.1284 48.5554 11.1096 53.604L12.0898 53.8018ZM18.0811 40.2236L18.902 40.7947C22.2485 35.9843 27.6331 32.9938 33.4854 32.696L33.4346 31.6973L33.3838 30.6986C26.9133 31.0278 20.96 34.3342 17.2602 39.6526L18.0811 40.2236ZM70.0908 39.3721L70.0907 40.3721C70.9508 40.3722 71.6484 41.0699 71.6484 41.9307H72.6484H73.6484C73.6484 39.966 72.0561 38.3724 70.091 38.3721L70.0908 39.3721ZM72.6484 41.9307H71.6484V52.1631H72.6484H73.6484V41.9307H72.6484ZM72.6484 52.1631L71.6484 52.163C71.6484 53.0233 70.9512 53.7206 70.0907 53.7207L70.0908 54.7207L70.091 55.7207C72.0556 55.7204 73.6483 54.1281 73.6484 52.1632L72.6484 52.1631ZM70.0908 54.7207V53.7207C69.2299 53.7207 68.5323 53.0231 68.5322 52.163L67.5322 52.1631L66.5322 52.1632C66.5324 54.1285 68.1262 55.7207 70.0908 55.7207V54.7207ZM67.5322 52.1631H68.5322V41.9307H67.5322H66.5322V52.1631H67.5322ZM67.5322 41.9307H68.5322C68.5322 41.0701 69.2303 40.3721 70.0908 40.3721V39.3721V38.3721C68.1257 38.3721 66.5322 39.9656 66.5322 41.9307H67.5322Z" fill="#FFC59E" mask="url(#path-1-outside-1_33180_2999)"/>
</svg>
