<svg width="89" height="92" viewBox="0 0 89 92" fill="none" xmlns="http://www.w3.org/2000/svg">
<path d="M30.249 4C35.7005 4 39.5139 7.9597 41.748 11.8887C42.7038 13.5694 43.4768 15.4178 44.0566 17.3037C44.6271 15.5837 45.3673 13.8927 46.2656 12.3438C48.497 8.49659 52.3089 4.54999 57.749 4.5498C62.1385 4.5498 65.1831 7.25194 66.9541 10.2627C68.7013 13.2329 69.499 16.8965 69.499 20.1504C69.499 23.3793 68.6413 27.2264 67.0732 30.6826C69.0801 29.1919 71.4802 28.2003 74.249 28.2002L74.5918 28.2061C78.0999 28.3323 80.7452 30.3903 82.3867 32.8525C84.0587 35.3606 84.8993 38.5326 84.8994 41.5996C84.8994 45.8725 83.4543 50.7798 80.9883 54.6777C78.5678 58.5035 74.6112 62.1502 69.2998 62.1504C68.9844 62.1504 68.6756 62.1346 68.374 62.1084C71.3442 67.0092 73.3495 72.4044 73.3496 77.3496C73.3496 81.547 71.5104 84.5311 68.5732 86.2256C65.9664 87.7295 62.8624 88 60.499 88C56.6843 87.9999 53.3206 86.6071 50.7148 85.5381C47.8666 84.3696 45.9263 83.5996 43.999 83.5996C41.7509 83.5997 39.6301 84.4084 36.6777 85.5605C33.9114 86.6401 30.4457 88 26.3994 88C23.8611 88 20.9348 87.5415 18.5654 85.8184C15.9948 83.9487 14.6494 81.0162 14.6494 77.3496C14.6495 72.4164 16.6453 67.0358 19.6035 62.1445C19.4865 62.1483 19.368 62.1504 19.249 62.1504C14.1699 62.1502 10.2258 58.4435 7.79395 54.7197C5.27866 50.8681 3.64941 45.9503 3.64941 41.5996C3.64947 38.6792 4.28693 35.5006 5.90625 32.9287C7.61028 30.2224 10.4367 28.2002 14.2998 28.2002C16.5281 28.2003 18.5374 28.9141 20.2969 30.0293C18.9083 26.5965 18.2684 22.7973 18.501 19.4629C18.5231 16.2435 19.3223 12.6414 21.0449 9.71289C22.8159 6.70222 25.8598 4.00016 30.249 4ZM43.999 32.3496C43.6551 33.2666 43.2436 34.1549 42.7539 34.9873C41.0382 37.9039 38.1278 40.531 33.957 40.6924L33.5498 40.7002L33.0264 40.6885C31.0195 40.6027 29.2318 40.0249 27.6621 39.1309C29.0605 42.2286 29.8994 45.6339 29.8994 48.75C29.8994 49.239 29.8792 49.735 29.8418 50.2344C31.0188 49.2707 32.2311 48.3929 33.4629 47.6221C36.7172 45.5857 40.3566 44.1505 43.999 44.1504L44.3408 44.1543C47.869 44.2404 51.3834 45.6493 54.5361 47.6221C55.976 48.5231 57.3883 49.5711 58.75 50.7305C58.6829 50.0638 58.6494 49.4006 58.6494 48.75C58.6494 45.4676 59.5024 41.8112 61.0156 38.5254C59.3021 39.7491 57.2836 40.5825 54.9551 40.6885L54.4492 40.7002L54.042 40.6924C49.8711 40.5311 46.9608 37.9039 45.2451 34.9873C44.7554 34.1548 44.343 33.2667 43.999 32.3496Z" stroke="#FFC59E" stroke-width="7" stroke-linecap="round" stroke-linejoin="round"/>
</svg>
