<svg width="112" height="112" viewBox="0 0 112 112" fill="none" xmlns="http://www.w3.org/2000/svg">
<path d="M61.1328 9.14746C72.6628 -2.38274 91.3241 -2.3812 102.853 9.14746C114.383 20.6774 114.381 39.3383 102.853 50.8672L97.0713 56.6475C105.699 61.7994 111.493 71.2307 111.493 81.9932C111.493 98.26 98.26 111.493 81.9932 111.493C71.2309 111.493 61.7994 105.699 56.6475 97.0713L50.8672 102.853C39.3372 114.383 20.6759 114.381 9.14746 102.853C-2.38267 91.3225 -2.38139 72.6617 9.14746 61.1328C11.3458 58.9345 58.7086 11.5713 61.1328 9.14746ZM14.4111 66.3975C5.79051 75.0181 5.79169 88.9696 14.4111 97.5889C23.0317 106.209 36.983 106.208 45.6025 97.5889L53.5107 89.6807C52.8483 87.2282 52.4922 84.6512 52.4922 81.9932C52.4922 75.2994 54.7348 69.1187 58.5059 64.1631L37.5752 43.2324L14.4111 66.3975ZM78.2705 60.2529C67.8753 62.0271 59.9365 71.1009 59.9365 81.9932C59.9367 92.8853 67.8755 101.957 78.2705 103.731V60.2529ZM85.7148 103.731C96.11 101.957 104.049 92.8852 104.049 81.9932C104.049 71.1007 96.1102 62.0269 85.7148 60.2529V103.731ZM97.5889 14.4111C88.9683 5.7906 75.017 5.79197 66.3975 14.4111L42.8389 37.9688L63.7207 58.8506C68.7486 54.8725 75.0981 52.4922 81.9932 52.4922C84.6512 52.4922 87.2282 52.8471 89.6807 53.5098L97.5889 45.6025C106.209 36.9819 106.208 23.0304 97.5889 14.4111Z" fill="#FFC59E" stroke="#FFC59E"/>
</svg>
