<svg width="132" height="92" viewBox="0 0 132 92" fill="none" xmlns="http://www.w3.org/2000/svg">
<path d="M121.167 0H105.397C101.04 0 97.2785 2.5866 95.5604 6.30353C92.7623 5.6524 89.7536 5.32258 86.5806 5.32258C83.4077 5.32258 80.399 5.6524 77.6009 6.30353C75.8826 2.5866 72.121 0 67.7643 0H51.9938C46.0208 0 41.1613 4.85952 41.1613 10.8325C41.1613 13.0297 41.8243 15.2845 42.9807 17.0186L49.8277 27.2892C50.9238 28.9335 52.4902 30.2326 54.2939 31.0668C50.9424 44.4946 51.9839 67.155 51.9839 66.7097C51.9839 76.9817 60.3408 85.3387 70.6129 85.3387C72.2941 85.3387 73.9239 85.1143 75.4744 84.6949C77.935 88.4464 82.1428 90.8387 86.5806 90.8387C91.0184 90.8387 95.2263 88.4464 97.6869 84.6949C99.2374 85.1143 100.867 85.3387 102.548 85.3387C112.82 85.3387 121.177 76.9817 121.177 66.7097C121.177 53.1508 121.823 41.8955 118.895 31.0537C120.687 30.2191 122.243 28.925 123.333 27.2892L130.181 17.0186C131.337 15.2843 132 13.0295 132 10.8325C132 4.85952 127.14 0 121.167 0ZM54.2564 24.3368L47.4093 14.066C46.8385 13.2099 46.4839 11.9708 46.4839 10.8325C46.4839 7.79439 48.9557 5.32258 51.9938 5.32258H67.7644C70.8024 5.32258 73.2742 7.79439 73.2742 10.8325C73.2742 11.971 72.9195 13.2099 72.3488 14.0663L65.5014 24.3371C64.4776 25.8732 62.7637 26.7903 60.9173 26.7903H59.0184C57.1191 26.7903 55.25 25.8273 54.2564 24.3368ZM86.5806 85.5161C84.2304 85.5161 81.9787 84.3693 80.4625 82.5151C82.9583 80.9541 85.0602 78.8196 86.5806 76.2969C88.1011 78.8196 90.203 80.9541 92.6988 82.5151C91.1825 84.3693 88.9309 85.5161 86.5806 85.5161ZM84.0883 60.4537C84.4672 59.4452 85.4414 58.7258 86.5806 58.7258C87.7198 58.7258 88.6941 59.4452 89.073 60.4537L86.5806 62.9461L84.0883 60.4537ZM115.855 66.7097C115.855 74.0469 109.886 80.0161 102.548 80.0161C95.568 80.0161 89.826 74.6135 89.2838 67.7703L93.7849 63.269C94.2842 62.7697 94.5645 62.0929 94.5645 61.3871C94.5645 56.9848 90.9829 53.4032 86.5806 53.4032C82.1783 53.4032 78.5968 56.9848 78.5968 61.3871C78.5968 62.0929 78.8771 62.7697 79.3763 63.2688L83.8775 67.7701C83.3353 74.6135 77.5933 80.0161 70.6129 80.0161C63.2757 80.0161 57.3064 74.0469 57.3064 66.7097C57.3064 66.0284 56.3141 44.6722 59.5205 32.1129H60.9173C64.5476 32.1129 67.9168 30.3096 69.9304 27.2892L76.7775 17.0186C77.8094 15.4711 78.4468 13.5091 78.5725 11.5436C81.0388 10.9477 83.7228 10.6452 86.5806 10.6452C89.4385 10.6452 92.1225 10.9477 94.5888 11.5436C94.7144 13.5092 95.3521 15.4711 96.3838 17.0186L103.231 27.2892C103.705 28.0005 104.255 28.6433 104.865 29.2119C102.702 27.6886 100.067 26.7903 97.2258 26.7903C89.8886 26.7903 83.9193 32.7596 83.9193 40.0968C83.9193 47.434 89.8886 53.4032 97.2258 53.4032C104.563 53.4032 110.532 47.434 110.532 40.0968C110.532 36.1964 108.845 32.6828 106.163 30.2466C107.93 31.4463 110.039 32.1129 112.244 32.1129H113.668C116.49 42.2377 115.855 52.8348 115.855 66.7097ZM105.21 40.0968C105.21 44.4991 101.628 48.0806 97.2258 48.0806C92.8235 48.0806 89.2419 44.4991 89.2419 40.0968C89.2419 35.6945 92.8235 32.1129 97.2258 32.1129C101.628 32.1129 105.21 35.6945 105.21 40.0968ZM125.752 14.0662L118.905 24.337C117.911 25.8273 116.042 26.7903 114.143 26.7903H112.244C110.398 26.7903 108.684 25.8732 107.66 24.337C107.659 24.337 107.659 24.337 107.659 24.337L100.812 14.0662C100.242 13.2099 99.8871 11.9708 99.8871 10.8325C99.8871 7.79439 102.359 5.32258 105.397 5.32258H121.168C124.206 5.32258 126.677 7.79439 126.677 10.8325C126.677 11.9708 126.323 13.2099 125.752 14.0662Z" fill="#FFC59E"/>
<path d="M75.9356 42.758C77.4054 42.758 78.5969 41.5665 78.5969 40.0967C78.5969 38.6269 77.4054 37.4354 75.9356 37.4354C74.4659 37.4354 73.2744 38.6269 73.2744 40.0967C73.2744 41.5665 74.4659 42.758 75.9356 42.758Z" fill="#FFC59E"/>
<path d="M97.226 42.758C98.6958 42.758 99.8873 41.5665 99.8873 40.0967C99.8873 38.6269 98.6958 37.4354 97.226 37.4354C95.7562 37.4354 94.5647 38.6269 94.5647 40.0967C94.5647 41.5665 95.7562 42.758 97.226 42.758Z" fill="#FFC59E"/>
<path d="M43.0771 43.0645H34.783C32.4918 43.0645 30.5133 44.4248 29.6097 46.3796C28.1382 46.0372 26.5558 45.8637 24.8871 45.8637C23.2184 45.8637 21.636 46.0372 20.1644 46.3796C19.2608 44.4248 17.2824 43.0645 14.9911 43.0645H6.69707C3.55573 43.0645 1 45.6202 1 48.7615C1 49.9171 1.3487 51.1029 1.95688 52.0149L5.55786 57.4165C6.13433 58.2813 6.95815 58.9645 7.90673 59.4032C6.14412 66.4652 6.69185 78.3828 6.69185 78.1486C6.69185 83.5509 11.087 87.9461 16.4893 87.9461C17.3735 87.9461 18.2306 87.828 19.046 87.6074C20.3402 89.5805 22.5532 90.8386 24.8871 90.8386C27.221 90.8386 29.434 89.5805 30.7281 87.6074C31.5436 87.828 32.4007 87.9461 33.2849 87.9461C38.6872 87.9461 43.0823 83.5509 43.0823 78.1486C43.0823 71.0177 43.4221 65.0982 41.8819 59.3963C42.8244 58.9574 43.6428 58.2768 44.2162 57.4165L47.8173 52.0149C48.4255 51.1028 48.7742 49.917 48.7742 48.7615C48.7742 45.6202 46.2185 43.0645 43.0771 43.0645ZM7.88704 55.8637L4.28597 50.4621C3.98579 50.0119 3.79927 49.3602 3.79927 48.7615C3.79927 47.1637 5.09925 45.8637 6.69707 45.8637H14.9912C16.5889 45.8637 17.8889 47.1637 17.8889 48.7615C17.8889 49.3603 17.7024 50.0119 17.4022 50.4623L13.8011 55.8639C13.2626 56.6718 12.3612 57.1541 11.3901 57.1541H10.3915C9.39258 57.1541 8.40957 56.6476 7.88704 55.8637ZM24.8871 88.0394C23.651 88.0394 22.4668 87.4362 21.6694 86.4611C22.982 85.6401 24.0874 84.5175 24.8871 83.1908C25.6868 84.5175 26.7922 85.6401 28.1048 86.4611C27.3073 87.4362 26.1232 88.0394 24.8871 88.0394ZM23.5763 74.8585C23.7756 74.3281 24.288 73.9497 24.8871 73.9497C25.4862 73.9497 25.9986 74.3281 26.1979 74.8585L24.8871 76.1693L23.5763 74.8585ZM40.2831 78.1486C40.2831 82.0074 37.1437 85.1468 33.2849 85.1468C29.6138 85.1468 26.5939 82.3054 26.3088 78.7064L28.676 76.3391C28.9386 76.0765 29.086 75.7205 29.086 75.3494C29.086 73.0341 27.2024 71.1505 24.8871 71.1505C22.5718 71.1505 20.6882 73.0341 20.6882 75.3494C20.6882 75.7205 20.8356 76.0765 21.0982 76.339L23.4654 78.7063C23.1803 82.3054 20.1604 85.1468 16.4893 85.1468C12.6305 85.1468 9.49112 82.0074 9.49112 78.1486C9.49112 77.7903 8.96924 66.5586 10.6555 59.9534H11.3901C13.2994 59.9534 15.0714 59.005 16.1303 57.4165L19.7314 52.0149C20.2741 51.2011 20.6093 50.1692 20.6754 49.1355C21.9725 48.8221 23.3841 48.663 24.8871 48.663C26.3901 48.663 27.8017 48.8221 29.0988 49.1355C29.1648 50.1693 29.5002 51.2011 30.0428 52.0149L33.6438 57.4165C33.8932 57.7906 34.1825 58.1286 34.5034 58.4277C33.3655 57.6265 31.9801 57.1541 30.4856 57.1541C26.6268 57.1541 23.4875 60.2935 23.4875 64.1523C23.4875 68.0111 26.6268 71.1505 30.4856 71.1505C34.3444 71.1505 37.4838 68.0111 37.4838 64.1523C37.4838 62.101 36.5966 60.2531 35.1859 58.9719C36.1153 59.6028 37.2242 59.9534 38.3841 59.9534H39.1328C40.6172 65.2782 40.2831 70.8515 40.2831 78.1486ZM34.6845 64.1523C34.6845 66.4676 32.8009 68.3512 30.4856 68.3512C28.1704 68.3512 26.2867 66.4676 26.2867 64.1523C26.2867 61.837 28.1704 59.9534 30.4856 59.9534C32.8009 59.9534 34.6845 61.837 34.6845 64.1523ZM45.4882 50.4622L41.8871 55.8638C41.3645 56.6476 40.3815 57.1541 39.3827 57.1541H38.3841C37.413 57.1541 36.5116 56.6718 35.973 55.8638L32.3719 50.4622C32.0718 50.0119 31.8853 49.3602 31.8853 48.7615C31.8853 47.1637 33.1853 45.8637 34.7831 45.8637H43.0772C44.6749 45.8637 45.9749 47.1637 45.9749 48.7615C45.9749 49.3602 45.7884 50.0119 45.4882 50.4622Z" fill="#FFC59E" stroke="#FFC59E"/>
<path d="M19.2882 65.5523C20.0612 65.5523 20.6878 64.9257 20.6878 64.1527C20.6878 63.3797 20.0612 62.7531 19.2882 62.7531C18.5152 62.7531 17.8886 63.3797 17.8886 64.1527C17.8886 64.9257 18.5152 65.5523 19.2882 65.5523Z" fill="#FFC59E" stroke="#FFC59E"/>
<path d="M30.4855 65.5523C31.2585 65.5523 31.8852 64.9257 31.8852 64.1527C31.8852 63.3797 31.2585 62.7531 30.4855 62.7531C29.7125 62.7531 29.0859 63.3797 29.0859 64.1527C29.0859 64.9257 29.7125 65.5523 30.4855 65.5523Z" fill="#FFC59E" stroke="#FFC59E"/>
</svg>
