<svg width="88" height="69" viewBox="0 0 88 69" fill="none" xmlns="http://www.w3.org/2000/svg">
<path fill-rule="evenodd" clip-rule="evenodd" d="M0.0750732 29.7028C0.0750732 28.5675 0.810083 27.163 2.28012 25.4892C4.01215 23.7572 5.11103 22.6219 5.57679 22.0834C7.16327 20.2349 8.74244 18.3865 10.3144 16.538C12.5558 13.6416 13.6765 11.502 13.6765 10.1193C13.6765 9.04227 13.44 8.2636 12.967 7.78328C12.4939 7.30296 11.8062 7.06282 10.9038 7.06282C9.28825 7.06282 8.10205 8.20537 7.34519 10.4905C6.58834 12.7756 5.46763 13.9181 3.98304 13.9181C2.87687 13.9181 2.02542 13.5652 1.42867 12.8593C0.83192 12.1534 0.533549 11.3274 0.533549 10.3813C0.533549 7.54311 1.56329 5.11249 3.6228 3.08936C5.68232 1.06624 8.26213 0.0546875 11.3623 0.0546875C14.2005 0.0546875 16.5911 0.957077 18.5342 2.76187C20.4773 4.56668 21.4488 6.90999 21.4488 9.79184C21.4488 11.7567 20.852 13.7726 19.6586 15.8394C18.858 17.2366 17.4899 19.0196 15.5541 21.1882C12.876 24.2011 11.4278 25.8458 11.2095 26.1223H18.8289C19.8769 26.1223 20.6956 26.4644 21.285 27.1484C21.8745 27.8325 22.1693 28.6185 22.1693 29.5063C22.1693 30.4233 21.8782 31.2201 21.296 31.8969C20.7138 32.5737 19.8914 32.9121 18.8289 32.9121H4.20136C3.00786 32.9121 2.02178 32.6138 1.2431 32.017C0.46441 31.4203 0.0750732 30.6489 0.0750732 29.7028ZM25.7279 23.2622C25.7279 22.6654 25.8953 21.9886 26.23 21.2318C26.4047 20.7806 26.7031 20.2639 27.1252 19.6817L37.7574 3.04558C38.3542 2.08496 39.0637 1.41908 39.8861 1.04793C40.7084 0.676788 41.7163 0.491211 42.9098 0.491211C44.5545 0.491211 45.8608 0.989716 46.8287 1.98671C47.7966 2.98372 48.2806 4.31912 48.2806 5.99292V19.638H49.787C50.9514 19.638 51.8538 19.8964 52.4942 20.4131C53.1346 20.9298 53.4548 21.7558 53.4548 22.891C53.4548 23.9972 53.1419 24.8123 52.516 25.3362C51.8901 25.8602 50.9805 26.1222 49.787 26.1222H48.2806V29.1132C48.2806 31.8204 47.1162 33.174 44.7874 33.174C42.4586 33.174 41.2943 31.8495 41.2943 29.2005V26.1222H29.352C28.1294 26.1222 27.1907 25.7947 26.5357 25.1398C25.9972 24.6012 25.7279 23.9754 25.7279 23.2622ZM41.2943 19.6384H34.5918L41.2943 8.13281V19.6384ZM65.4334 39.5562C65.4334 38.6393 65.7208 37.8424 66.2958 37.1656C66.8707 36.4888 67.6966 36.1504 68.7737 36.1504H83.4449C84.5802 36.1504 85.4899 36.5106 86.174 37.2311C86.858 37.9516 87.2001 38.7557 87.2001 39.6435C87.2001 40.1821 87.1127 40.706 86.9381 41.2155C86.8799 41.361 86.6252 41.9432 86.174 42.962L76.022 65.0999C75.5126 66.2643 75.0468 67.0648 74.6247 67.5014C73.9698 68.2146 73.0819 68.5712 71.9612 68.5712C70.8841 68.5712 70.0181 68.2292 69.3632 67.5451C68.7082 66.861 68.3807 66.1042 68.3807 65.2745C68.3807 64.7942 68.4244 64.4122 68.5117 64.1283C68.599 63.8445 68.9411 63.0768 69.5378 61.825L78.4454 42.9184H68.7737C67.6966 42.9184 66.8707 42.5836 66.2958 41.9141C65.7208 41.2446 65.4334 40.4586 65.4334 39.5562ZM42.5685 55.3804C41.8044 56.9742 41.4223 58.1967 41.4223 59.0482C41.4223 61.4716 42.6777 62.6833 45.1884 62.6833C46.0398 62.6833 46.8258 62.334 47.5463 61.6353C48.2667 60.9367 49.2273 59.4303 50.4281 57.1161L68.4724 22.3701C69.4112 20.5799 70.0116 19.3682 70.2736 18.7351C70.7757 17.578 71.0268 16.6392 71.0268 15.9187C71.0268 13.5172 69.7714 12.3164 67.2607 12.3164C66.1909 12.3164 65.2085 12.895 64.3134 14.0521C63.8112 14.6852 63.0471 15.9624 62.021 17.8836L43.9767 52.6295C43.671 53.2627 43.2017 54.1796 42.5685 55.3804Z" fill="#FFC59E"/>
</svg>
