<svg width="84" height="76" viewBox="0 0 84 76" fill="none" xmlns="http://www.w3.org/2000/svg">
<path fill-rule="evenodd" clip-rule="evenodd" d="M64.8486 1.74903C59.7919 -1.32816 53.3522 0.169731 50.5899 5.1739L36.3878 30.9071L25.7353 28.6994C26.1606 22.0596 21.5156 15.8162 14.912 14.4484C7.93887 13.0047 1.42887 17.5428 0.368408 24.5869C-0.690299 31.6305 4.10185 38.5125 11.0758 39.9577C15.8611 40.9491 20.4285 39.1208 23.1652 35.6006L36.2121 38.3035L29.8872 49.763C25.3669 49.5248 20.9846 51.7424 18.6639 55.9452C15.2833 62.0715 17.5617 70.0889 23.7505 73.8559C29.9414 77.6229 37.6986 75.7111 41.0792 69.5867C44.2803 63.7863 42.4051 56.2907 36.9421 52.3129L42.1061 42.9549L71.399 49.0237C77.0964 50.2045 82.4313 46.3783 83.2968 40.6237L47.487 33.2062L64.8486 1.74903ZM15.9401 34.303C12.6692 35.7811 8.7034 34.2115 7.08259 30.7973C5.46177 27.3831 6.79966 23.4167 10.0704 21.9386C13.3421 20.4602 17.3072 22.0301 18.928 25.4444C20.5488 28.8586 19.2118 32.8245 15.9401 34.303ZM23.2362 65.4389C24.857 68.8531 28.8229 70.4227 32.0938 68.9446C35.3655 67.4662 36.7024 63.5001 35.0817 60.086C33.4609 56.6718 29.4957 55.1018 26.2241 56.5803C22.9531 58.0584 21.6154 62.0247 23.2362 65.4389Z" fill="#FFC59E"/>
</svg>
