<svg width="79" height="99" viewBox="0 0 79 99" fill="none" xmlns="http://www.w3.org/2000/svg">
<path d="M50.5205 31.2118C52.6488 29.016 55.1018 27.9216 57.6816 30.4832C60.2483 33.0324 59.3786 36.6231 59.3701 36.658C59.3951 36.6494 61.0356 36.0941 63.2002 38.3426C63.5212 38.676 63.8027 39.0326 64.0264 39.4129C64.8415 40.795 64.9809 42.4575 64.4385 44.3602C65.1452 44.6634 66.1228 45.1933 66.9561 46.0389C67.4514 46.5418 67.8418 47.105 68.1113 47.7088C68.8042 49.2567 68.7367 51.0287 67.9062 52.9862C68.6257 54.0088 72.5172 58.8657 67.4004 64.4618C64.9327 67.1608 60.082 72.1859 50.1992 76.3827C45.8384 78.235 25.8994 92.8325 19.8252 98.9998L0 84.3221C0.0297406 84.3002 22.8063 67.5097 24.748 63.535C26.3278 60.3002 25.9126 51.9288 27.3086 46.3143C27.9256 43.8288 29.0654 40.8605 33.4395 40.3504C35.8949 40.0645 38.279 41.5199 39.7939 42.0975L50.5205 31.2118ZM64.624 71.9998C65.8423 72.9148 67.165 73.765 68.5938 74.5477C68.8341 74.3265 69.0933 74.1206 69.3721 73.9354C72.2892 71.9937 76.1605 72.8912 78.0186 75.9393C79.8769 78.9875 79.0182 83.0324 76.1016 84.9745C73.1842 86.9158 69.3133 86.0186 67.4551 82.9705C66.6005 81.5684 66.3222 79.9555 66.5527 78.4334C64.5237 77.31 62.6716 76.054 61 74.6746C62.3434 73.7808 63.5447 72.8839 64.624 71.9998ZM19.0684 7.36703C20.2519 6.59329 21.9096 7.08373 22.7646 8.46176C23.6193 9.83976 23.3526 11.5908 22.1689 12.3651C21.7779 12.6206 21.3353 12.735 20.8867 12.7284C19.3611 15.6323 19.3046 18.4167 20.7061 21.1883C22.5483 24.8327 27.0161 28.5252 33.2842 31.5877C36.807 33.3092 39.955 34.3903 42 34.9452L39.0244 37.9998C37.6298 37.5432 36.1432 36.9878 34.6807 36.3709C31.1 34.8613 24.4538 31.6194 20.1748 26.869C17.7837 24.2149 16.4049 21.4088 16.0771 18.5291C15.7608 15.7535 16.4229 12.9593 18.042 10.201C17.8061 9.0865 18.1774 7.94966 19.0684 7.36703ZM30.0879 0.370936C30.9723 -0.219407 32.1243 -0.0817362 33.001 0.618006C36.096 0.273216 38.8201 0.844815 41.1182 2.33187C43.5022 3.8746 45.3815 6.37649 46.7021 9.76742C49.0668 15.8359 49.1169 23.4897 48.9365 27.5116C48.9186 27.9107 48.8953 28.3098 48.8701 28.7069L44.7461 32.9998C45.0709 30.8325 45.3601 27.7339 45.334 24.1463C45.2822 16.9259 43.922 11.1333 41.5039 7.83578C39.6649 5.3277 37.2032 4.18775 34.0205 4.38168C33.8381 4.80722 33.5519 5.17551 33.1641 5.43441C31.9897 6.21825 30.3442 5.72078 29.4961 4.32504C28.6482 2.9291 28.9136 1.15511 30.0879 0.370936Z" fill="#FFC59E"/>
</svg>
