<svg width="50" height="73" viewBox="0 0 50 73" fill="none" xmlns="http://www.w3.org/2000/svg">
<path d="M42 63V70.625C41.9998 71.9391 40.9844 72.9999 39.7266 73H0C0 67.7268 3.90304 63.4035 8.85938 63.0234C9.09415 63.0076 9.32895 63 9.57129 63H42ZM20.5996 0C21.0218 6.62942e-05 21.4444 0.11265 21.8213 0.353516L30.0625 5.64648C31.1182 6.31656 31.42 7.71714 30.749 8.76367L29.791 10.2549L26.707 15.0576C27.0916 14.9748 27.4914 14.9297 27.8984 14.9297C28.0492 14.9297 28.2005 14.9378 28.3438 14.9453C28.8263 14.983 29.2941 15.0731 29.7314 15.2236L31.4805 12.5059C32.0687 11.5949 33.2295 11.2337 34.2324 11.6553L34.248 11.6621C37.3245 12.9646 40.0766 14.8176 42.4443 17.1816C44.812 19.5382 46.6672 22.2934 47.9717 25.3574C49.3214 28.5347 50 31.908 50 35.3789C50 38.8496 49.3138 42.2224 47.9717 45.3994C47.0593 47.5526 45.8599 49.556 44.4121 51.3779C45.5885 52.3868 46.335 53.8853 46.335 55.5566C46.3349 58.267 44.3669 60.5183 41.7881 60.9775H9.34863C9.11496 60.9775 8.87339 60.9849 8.63965 61V50.8359H19.4453V51.3398C19.4453 52.5897 20.4563 53.5986 21.708 53.5986H29.1279C29.3541 53.5986 29.5803 53.5687 29.7988 53.501C32.7321 52.605 35.4164 51.001 37.6484 48.7725C41.2377 45.1887 43.2139 40.4302 43.2139 35.3633C43.2137 30.2963 41.2376 25.5378 37.6484 21.9541C36.3439 20.6517 34.8806 19.5604 33.3047 18.7021C33.5384 19.3572 33.6593 20.0649 33.6367 20.8027C33.5536 23.8217 31.0958 26.2757 28.0723 26.3662C26.3606 26.4189 24.8144 25.7117 23.7285 24.5674C23.4044 24.2287 23.1253 23.8446 22.8916 23.4307C22.6201 22.9563 22.4244 22.4435 22.3037 21.9014L16.4219 31.0645C15.9921 31.7346 15.2602 32.1035 14.5137 32.1035C14.0915 32.1035 13.669 31.9908 13.292 31.75L11.7539 30.7637L11.0449 31.8701L10.3369 32.9766L9.8916 33.6699C9.22044 34.7238 7.81761 35.0245 6.76953 34.3545L5.42773 33.4961C4.3722 32.8261 4.07037 31.4263 4.74121 30.3799L5.18652 29.6865L5.89551 28.5801L6.60352 27.4736L5.04297 26.4717C3.98759 25.8017 3.68579 24.4019 4.35645 23.3555L18.6914 1.03906C19.1212 0.368988 19.8532 0 20.5996 0ZM40.8232 53.6289C39.7524 53.6289 38.8926 54.495 38.8926 55.5566C38.8926 55.8577 38.9607 56.1513 39.0889 56.4072C39.398 57.0471 40.0538 57.4834 40.8154 57.4834C41.102 57.4834 41.3739 57.4235 41.6152 57.3105C42.2786 57.0093 42.7463 56.3393 42.7539 55.5488C42.7539 54.924 42.452 54.3744 41.9922 54.0205C41.8791 53.9377 41.7503 53.862 41.6221 53.8018C41.3809 53.6889 41.1096 53.6289 40.8232 53.6289ZM26.5029 44C27.3263 44.0002 28 44.7306 28 45.623V46.377C28 47.2694 27.3263 47.9998 26.5029 48H1.49707C0.673657 47.9998 0 47.2694 0 46.377V45.623C0 44.7306 0.673657 44.0002 1.49707 44H26.5029ZM27.9062 18.5967C27.7856 18.5967 27.6649 18.6044 27.5518 18.627C26.579 18.7926 25.8398 19.6359 25.8398 20.6523C25.8399 20.8328 25.863 21.0132 25.9082 21.1787C26.1419 22.0671 26.9409 22.7148 27.8984 22.7148C29.037 22.7148 29.9647 21.7891 29.9648 20.6523C29.9648 19.5155 29.0448 18.5968 27.9062 18.5967Z" fill="#FFC59E"/>
</svg>
