<svg width="69" height="71" viewBox="0 0 69 71" fill="none" xmlns="http://www.w3.org/2000/svg">
<path d="M58.4274 0.094452C61.0323 0.0639459 63.1204 2.17458 63.0698 4.78546L62.7178 22.9517L64.3662 22.9319C66.4352 22.9076 68.0772 24.5716 68.0333 26.636L68.0246 27.054C67.9844 29.1275 66.2766 30.8263 64.2106 30.8506L63.2799 30.8608L57.2206 30.9321L56.2919 30.9433C54.2279 30.9676 52.5816 29.3128 52.6219 27.2353L52.6296 26.8281C52.67 24.7497 54.3815 23.0519 56.4505 23.0276L57.3792 23.0164L57.3791 23.0125L59.422 22.9884L59.7208 7.60428L25.601 8.00068L25.4379 16.4007C28.7416 14.5225 31.6336 12.8975 33.0417 12.1552C37.5114 9.79827 40.0074 12.5761 39.1757 15.9169C38.6486 18.0397 35.5607 20.3723 31.8845 23.1483C31.1021 23.7392 30.293 24.35 29.4764 24.9833C28.5577 25.6968 26.9497 26.7639 25.2146 27.8739L24.5535 61.9556L58.6743 61.5553L58.7232 59.0144L55.7497 59.0487C53.6827 59.073 52.0405 57.4072 52.0806 55.3397L52.0893 54.9237C52.1297 52.8513 53.8325 51.1534 55.9004 51.1291L56.834 51.1179L62.8933 51.0465L63.8171 51.0363C65.8851 51.012 67.5273 52.667 67.4911 54.7404L67.4795 55.1486C67.4431 57.2251 65.7315 58.9247 63.6605 58.9491L62.7396 58.9603L62.7397 58.9642L62.017 58.9728L61.89 65.5507C61.8394 68.1575 59.6679 70.3196 57.063 70.3505L25.8239 70.7173C23.22 70.7479 21.1319 68.6372 21.1826 66.0293L21.2863 60.6359L15.601 60.703C15.601 60.703 7.19646 60.7704 2.77438 53.9188C2.752 53.8841 2.72879 53.8509 2.70575 53.8181C2.68187 53.784 2.65788 53.7499 2.63516 53.7144C2.44907 53.4149 2.27973 53.099 2.11117 52.7712C1.96557 52.4994 1.82994 52.2081 1.69579 51.9122L1.65551 51.8223C1.54385 51.5727 1.43398 51.3259 1.33219 51.0581C1.10603 50.4523 0.905995 49.8148 0.736242 49.1353C0.707144 49.0162 0.683893 48.8902 0.660057 48.764C0.643706 48.6775 0.626846 48.5906 0.608586 48.5052C0.484045 47.9173 0.382241 47.2978 0.303835 46.6502C0.273689 46.401 0.246692 46.1525 0.222718 45.8942C0.148861 45.0119 0.10133 44.0976 0.120557 43.107C0.335997 32.0148 5.5961 27.2566 9.15236 25.7593C9.1675 25.7495 15.739 21.943 22.1089 18.2977L22.3613 5.26406C22.4119 2.65424 24.5834 0.492099 27.1873 0.461295L58.4274 0.094452ZM41.6811 63.32C40.3791 63.3354 39.299 64.4138 39.2715 65.7224C39.2461 67.0348 40.2814 68.0832 41.5883 68.0679C42.8992 68.0524 43.9789 66.9819 44.0047 65.6665C44.0303 64.354 42.993 63.3046 41.6811 63.32ZM64.0182 41.4918C66.0798 41.4691 67.7098 43.1556 67.6718 45.2535L67.6641 45.6695C67.62 47.7693 65.9272 49.4864 63.8677 49.509L62.9469 49.5193L56.9217 49.5858L55.9979 49.596C53.9414 49.6187 52.3065 47.938 52.3453 45.8382L52.353 45.4213C52.3922 43.3235 54.094 41.6013 56.1464 41.5787L63.1003 41.502L64.0182 41.4918ZM64.1701 32.1454C66.2264 32.123 67.8645 33.8035 67.8217 35.9003L67.8179 36.3172C67.779 38.4141 66.0771 40.1401 64.0206 40.1627L63.1016 40.172L56.1517 40.2487C54.0962 40.2713 52.4631 38.5899 52.502 36.486L52.5097 36.0739C52.5487 33.972 54.2447 32.255 56.2973 32.2324L57.226 32.2222L64.1701 32.1454ZM37.6444 3.81009C37.3305 3.81488 37.0644 4.07597 37.0571 4.39801C37.0502 4.71474 37.3045 4.96686 37.6182 4.96238L47.6158 4.81339C47.9298 4.80869 48.1919 4.54724 48.1992 4.23132C48.2065 3.90822 47.9561 3.6564 47.642 3.6611L37.6444 3.81009Z" fill="#FFC59E"/>
</svg>
