<svg width="77" height="77" viewBox="0 0 77 77" fill="none" xmlns="http://www.w3.org/2000/svg">
<path d="M40.9999 44.9854C37.9181 48.8426 35.9952 53.6747 35.995 58.9971C35.995 62.1303 36.6417 65.1124 37.7968 67.8253L34.5038 71.1544C26.6536 79.0484 13.7355 78.8974 5.88564 71.004C-1.96189 63.1057 -1.96187 50.2564 5.88564 42.3604L22.1298 26.0001L40.9999 44.9854ZM56.9999 76.0001C47.9922 74.8985 40.9999 67.5294 40.9999 58.5001C40.9999 49.4703 47.9922 42.1016 56.9999 41.0001V76.0001ZM60.9999 41.0001C70.0078 42.1016 76.9999 49.4706 76.9999 58.5001C76.9998 67.5295 70.0076 74.8986 60.9999 76.0001V41.0001ZM42.6132 5.98054C50.4706 -1.99319 63.2509 -1.99318 71.1083 5.98054C78.9635 13.9589 78.9635 26.9381 71.1083 34.9141L67.8817 38.4942C65.1828 37.3202 62.2166 36.6622 59.0995 36.6622C53.6651 36.6622 48.7432 38.7177 44.8612 42.0001L25.9999 22.8487L42.6132 5.98054Z" fill="#FFC59E"/>
</svg>
