<svg width="100" height="100" viewBox="0 0 100 100" fill="none" xmlns="http://www.w3.org/2000/svg">
<rect width="100" height="100" fill="#FFFEFE"/>
<path d="M12.4097 65.7798C13.6734 65.0812 14.1655 66.221 13.3465 66.453C11.5358 66.9659 12.1039 69.4426 13.915 69.9197C15.2145 70.262 18.7825 69.7927 19.6671 69.5702C19.8435 69.4927 21.5682 69.4219 23.3443 69.4036C25.1205 69.3852 27.9477 70.1477 28.7012 70.2579C29.4548 70.3683 30.6837 70.5888 31.446 70.5979C32.2086 70.6071 33.4601 70.1201 33.4826 70.1154C33.5049 70.1108 33.5676 70.0421 33.7158 69.8675C33.8638 69.6928 34.3526 69.3484 34.3885 69.353C34.4245 69.3576 34.4782 69.4817 34.5051 69.7021C34.532 69.9226 34.4155 70.0788 34.4155 70.0788C34.4155 70.0788 35.1107 69.895 35.1107 70.0051C35.1107 70.1154 34.9268 70.4369 34.9088 70.4691C34.891 70.5014 35.6265 71.0664 35.8104 71.3283C35.9943 71.59 35.9226 71.5762 35.9764 71.8842C36.0301 72.1918 36.5011 72.9727 36.519 73.0509C36.5371 73.1289 36.5235 73.1426 36.4473 73.207C36.371 73.2714 36.3846 73.2345 36.2948 73.3219C36.2051 73.4092 35.8821 73.8087 35.5055 73.9926C35.1286 74.1762 35.0659 74.0201 34.7698 73.8455C34.4739 73.671 33.0924 73.8915 32.8322 74.0937C32.6194 74.259 32.1604 74.7074 32.0005 74.8649L31.9442 74.9206C31.9442 74.9206 31.8723 75.0309 31.7828 75.4535C31.693 75.8761 31.7289 76.2986 31.8366 76.997C31.9442 77.6952 33.0654 79.3121 33.2358 79.45C33.4063 79.5877 33.7113 79.7347 33.9266 79.9737C34.1418 80.2125 33.9535 80.3595 33.7202 80.4331C33.4871 80.5065 32.9129 80.3871 32.7335 80.3135C32.5542 80.24 32.4644 79.7256 31.8723 79.303C31.2803 78.8804 30.3474 78.1086 30.2039 77.7228C30.0603 77.3368 29.9347 76.2712 29.9347 76.2712C29.9347 76.2712 29.8091 76.5651 29.4144 77.0612C29.0196 77.5573 28.1047 78.3842 28.1047 78.7334C28.1047 79.0825 28.2124 79.6521 28.338 79.8726C28.4635 80.093 28.643 80.1114 28.8044 80.1665L28.8864 80.1937C29.0248 80.2401 29.1693 80.3013 29.2888 80.5157C29.4324 80.7729 29.2709 80.8465 29.0018 80.8465C28.7328 80.8465 28.3559 80.9751 27.8894 80.7914C27.4231 80.6075 26.5619 79.0458 26.3646 78.6599C26.1672 78.274 26.5977 77.5575 26.7773 77.2266C26.9566 76.8959 27.2078 76.4549 27.2078 76.4549C27.2078 76.4549 25.5573 76.4734 24.6961 76.2529C23.835 76.0323 22.8466 75.959 22.8466 75.959C22.8466 75.959 22.7748 76.3633 22.6313 76.9512C22.4878 77.5393 21.806 78.2192 21.7342 78.4396C21.6625 78.6601 22.129 79.1194 22.398 79.4135C22.6671 79.7074 23.2054 79.9096 23.4207 80.0566C23.6359 80.2036 23.887 80.4424 23.7435 80.7364C23.5999 81.0305 23.4745 80.7732 23.2233 80.8283C22.9721 80.8835 22.3442 80.9752 21.9137 80.8835C21.4831 80.7915 21.4651 80.2402 20.891 79.7442C20.317 79.248 19.7249 78.6968 19.7787 78.3662C19.8325 78.0353 19.9044 76.547 19.8864 76.4552C19.8684 76.3633 19.1328 76.9697 18.3435 77.3554C17.5541 77.7414 15.9395 78.1366 15.8408 78.403C15.7421 78.6694 15.4192 79.9005 15.473 80.2679C15.5268 80.6354 15.6255 80.8467 15.7243 81.0396L15.766 81.1214C15.8226 81.2355 15.8139 81.2495 15.7243 81.3338C15.6166 81.4348 14.8362 81.3429 14.6657 81.1039C14.4953 80.8652 14.1815 79.4135 14.298 79.092C14.4146 78.7705 15.0426 76.6573 15.2758 76.4735C15.509 76.2897 16.3523 75.7753 16.8186 74.6177C17.1882 73.7008 17.0737 72.2881 17.233 71.4846C14.6712 71.4601 11.4207 71.728 10.9999 68.1032C10.8825 67.0915 11.5352 66.2633 12.4097 65.7798ZM60.9819 19L83.7411 74.1475C84.85 76.8318 86.8195 78.1741 89.6498 78.1741H90V80.0561H61.4196V78.1741C66.7301 77.9991 69.3853 76.7443 69.3853 74.41C69.3853 73.7681 69.2686 73.1699 69.0352 72.6156L64.8335 62.5051H44.3064L41.1551 70.5584C40.7466 71.6089 40.5423 72.6301 40.5423 73.6222C40.5423 76.4817 42.8767 77.9991 47.5452 78.1741V80.0561L35.9215 80.0592C36.7367 77.7057 38.5583 73.0727 38.6971 72.6988C38.8761 72.2157 39.1392 71.5498 39.1347 71.0605C39.1302 70.5712 39.2774 69.8454 39.0059 68.9214C38.7347 67.9973 38.4118 67.2058 38.3644 66.7041C38.3172 66.2026 38.4692 64.8804 38.5198 64.0361C38.5705 63.1918 38.7978 62.6189 38.9035 62.5115C39.0092 62.404 38.9748 62.3161 39.265 62.2963C39.5551 62.2765 39.7184 62.2168 40.1356 62.2581C40.5527 62.2993 41.0225 62.1629 41.3768 62.1469C41.7311 62.1311 42.1074 62.1571 42.5762 61.8995C43.0452 61.6419 43.1267 61.4146 43.3122 61.2013C43.4976 60.9881 43.7298 60.6147 43.8068 60.4094C43.8836 60.2043 43.9284 60.0762 43.5414 59.9901C43.1544 59.9039 42.5338 59.5957 42.1047 59.5102C41.6758 59.4246 41.1562 59.316 40.9452 59.1193C40.7343 58.9227 40.6389 58.6846 40.4881 58.5351C40.3373 58.3856 40.2532 58.3077 39.9114 58.1935C39.5697 58.0795 38.9856 57.7296 38.7759 57.6751C38.5661 57.6205 38.297 57.5609 38.2394 57.4444C38.1817 57.328 37.8376 56.5553 37.6945 56.198C37.5512 55.8409 37.2728 55.2351 37.1655 55.2478C37.0583 55.2609 36.9567 56.2007 36.7326 56.7617C36.5085 57.3227 36.1849 57.8472 36.1724 58.1354C36.16 58.4234 35.8809 58.878 35.6621 59.2425C35.4434 59.607 34.704 60.9811 34.4155 61.9709C34.1269 62.9607 33.4066 64.2036 33.0384 64.5712C32.6701 64.9389 30.59 66.2399 30.0422 66.6161C29.8783 66.7287 29.7511 66.8172 29.6369 66.894L49.2883 19H60.9819ZM54.2417 36.8572L45.6632 59.0038H63.3892L54.2417 36.8572Z" fill="#59443F"/>
</svg>
